<svg width="635" height="635" viewBox="0 0 635 635" fill="none" xmlns="http://www.w3.org/2000/svg">
<g filter="url(#filter0_ii)">
<rect width="635" height="635" fill="url(#paint0_linear)"/>
<path d="M251.802 335.156C97.9239 347.63 2 459.891 2 459.891V635H632V442.62C593.687 583.972 342.677 327.79 251.802 335.156Z" fill="url(#paint1_linear)" fill-opacity="0.5"/>
<path d="M382.198 406.119C536.076 415.641 632 501.334 632 501.334V635H2V488.15C40.3127 596.049 291.323 400.496 382.198 406.119Z" fill="url(#paint2_linear)" fill-opacity="0.5"/>
<g clip-path="url(#clip0)">
<path opacity="0.1" d="M534.281 296.922C533.718 298.131 533.157 299.324 532.598 300.5C531.725 302.329 530.864 304.121 530.013 305.878C529.635 306.657 529.257 307.421 528.888 308.185C524.717 316.682 520.823 324.197 517.516 330.378C514.515 335.978 510.058 340.67 504.614 343.963C499.17 347.255 492.937 349.027 486.57 349.093L413.026 349.891H412.25L405.946 349.959L400.553 350.017L384.016 350.196H383.346L374.927 350.288H374.67L322.779 350.849L276.461 351.332L271.073 351.39L237.611 351.753H237.572L215.87 351.985H215.637L147.015 352.725L126.487 352.948C122.106 352.997 117.743 352.374 113.553 351.1C106.26 348.903 99.7057 344.765 94.5954 339.131C85.7788 329.444 79.3531 318.142 75.0369 305.878C74.413 304.108 73.831 302.316 73.2911 300.5C58.3494 250.133 76.5646 185.151 109.348 141.665C110.722 139.847 112.119 138.073 113.538 136.345L113.572 136.307C123.654 123.965 134.959 113.654 147 106.323C168.339 93.3091 191.981 89.6434 215.234 100.568C234.909 109.815 253.28 114.162 271.087 115.342C272.887 115.458 274.686 115.545 276.475 115.599C317.324 116.88 355.607 102.203 400.562 92.7288C402.352 92.3516 404.146 91.9792 405.955 91.6262C438.026 85.2619 473.602 81.9057 515.911 88.9615C520.306 89.6776 524.643 90.712 528.888 92.0566C530.754 92.6562 532.551 93.301 534.281 93.991C554.475 102.183 565.488 117.32 570.168 136.287C570.611 138.048 570.994 139.838 571.317 141.66C579.615 187.283 555.314 252 534.281 296.922Z" fill="#8AFFA4"/>
<g opacity="0.1">
<path opacity="0.1" d="M147 106.322V352.778L126.472 353C122.091 353.049 117.729 352.426 113.538 351.153V136.306H113.572C123.654 123.95 134.959 113.639 147 106.322Z" fill="#8AFFA4"/>
<path opacity="0.1" d="M571.341 141.664H109.348C110.722 139.846 112.119 138.073 113.538 136.345V136.306H570.192C570.635 138.057 571.018 139.843 571.341 141.664Z" fill="#8AFFA4"/>
<path opacity="0.1" d="M534.281 93.9952V300.495H532.598C531.725 302.323 530.864 304.116 530.013 305.873C529.635 306.651 529.257 307.416 528.888 308.18V92.0415C530.754 92.6411 532.551 93.2924 534.281 93.9952Z" fill="#8AFFA4"/>
<path opacity="0.1" d="M405.955 91.6109V349.977L400.562 350.036V92.7135C402.352 92.3363 404.146 91.9639 405.955 91.6109Z" fill="#8AFFA4"/>
<path opacity="0.1" d="M276.475 115.583V351.38L271.087 351.438V115.327C272.886 115.443 274.686 115.511 276.475 115.583Z" fill="#8AFFA4"/>
<path opacity="0.1" d="M532.598 300.5C531.725 302.328 530.863 304.12 530.013 305.877H75.0369C74.4129 304.107 73.8309 302.315 73.291 300.5H532.598Z" fill="#8AFFA4"/>
</g>
<path d="M179.832 213.557H170.618V241.442H179.832V213.557Z" fill="#3F3D56"/>
<path d="M427.807 212.106H418.593V241.606H427.807V212.106Z" fill="#3F3D56"/>
<path d="M486.57 343.076V349.363L412.895 350.04L412.109 350.055L384.108 350.311L383.438 350.321L374.927 350.393H374.675L322.794 350.872L237.63 351.66H237.557L215.903 351.864L215.671 351.868L119.454 352.749V345.495L142.078 331.954L187.47 331.576L188.44 331.571L188.76 331.567L189.73 331.552L211.524 331.373L212.499 331.368L212.809 331.364L213.779 331.359L220.768 331.301L220.952 331.296L238.192 331.151H238.333L372.861 330.019L376.154 329.995H376.484L378.996 329.971L397.255 329.821L398.225 329.806L399.122 329.797H399.587L405.266 329.753L406.392 329.739L407.9 329.729L412.628 329.685L420.13 329.623L421.1 329.613L422.788 329.603H423.103L459.335 329.294L486.57 343.076Z" fill="#65617D"/>
<path opacity="0.2" d="M486.57 343.076V349.363L412.895 350.04L412.109 350.055L384.108 350.311L383.438 350.321L374.927 350.393H374.675L322.794 350.872L237.63 351.66H237.557L215.903 351.864L215.671 351.868L119.454 352.749V345.495L142.078 331.954L187.47 331.576L188.44 331.571L188.76 331.567L189.73 331.552L211.524 331.373L212.499 331.368L212.809 331.364L213.779 331.359L220.768 331.301L220.952 331.296L238.192 331.151H238.333L372.861 330.019L376.154 329.995H376.484L378.996 329.971L397.255 329.821L398.225 329.806L399.122 329.797H399.587L405.266 329.753L406.392 329.739L407.9 329.729L412.628 329.685L420.13 329.623L421.1 329.613L422.788 329.603H423.103L459.335 329.294L486.57 343.076Z" fill="black"/>
<path d="M211.597 318.901V330.745C211.597 331.306 211.438 331.855 211.138 332.329C210.837 332.804 210.408 333.183 209.9 333.424C209.521 333.607 209.108 333.706 208.687 333.714L191.762 334.072C191.31 334.083 190.862 333.988 190.453 333.796C189.936 333.56 189.498 333.18 189.191 332.703C188.884 332.225 188.721 331.67 188.721 331.102V318.901H211.597Z" fill="#3F3D56"/>
<path opacity="0.1" d="M211.597 318.901V330.745C211.597 331.306 211.438 331.855 211.138 332.329C210.837 332.804 210.408 333.183 209.9 333.424C209.521 333.607 209.108 333.706 208.687 333.714L191.762 334.072C191.31 334.083 190.862 333.988 190.453 333.796C189.936 333.56 189.498 333.18 189.191 332.703C188.884 332.225 188.721 331.67 188.721 331.102V318.901H211.597Z" fill="black"/>
<path d="M212.567 318.901V330.745C212.567 331.306 212.408 331.855 212.108 332.329C211.807 332.804 211.378 333.183 210.87 333.424C210.491 333.607 210.078 333.706 209.657 333.714L192.732 334.072C192.28 334.083 191.832 333.988 191.423 333.796C190.906 333.56 190.468 333.18 190.161 332.703C189.854 332.225 189.691 331.67 189.691 331.102V318.901H212.567Z" fill="#3F3D56"/>
<path d="M421.1 318.901H398.225V334.135H421.1V318.901Z" fill="#3F3D56"/>
<path opacity="0.1" d="M421.1 318.901H398.225V334.135H421.1V318.901Z" fill="black"/>
<path d="M420.131 318.901H397.255V334.135H420.131V318.901Z" fill="#3F3D56"/>
<path opacity="0.1" d="M179.832 213.552V216.323L170.618 216.086V213.552H179.832Z" fill="black"/>
<path d="M240.481 135.488L229.41 214.8C229.339 215.306 229.084 215.77 228.694 216.101C228.303 216.431 227.803 216.607 227.29 216.594L138.639 214.302L136.957 214.258C136.664 214.251 136.375 214.183 136.111 214.057C135.846 213.932 135.611 213.752 135.42 213.53C135.23 213.308 135.089 213.048 135.006 212.768C134.923 212.487 134.9 212.193 134.939 211.903L147.369 128.878C147.449 128.363 147.719 127.898 148.127 127.573C148.535 127.248 149.05 127.087 149.57 127.122L238.541 133.128C238.828 133.145 239.109 133.221 239.365 133.351C239.621 133.481 239.848 133.663 240.03 133.884C240.212 134.106 240.347 134.363 240.424 134.639C240.502 134.915 240.521 135.205 240.481 135.488V135.488Z" fill="#65617D"/>
<path d="M153.319 132.954L143.945 206.138L225.419 208.716L235.438 138.11L153.319 132.954Z" fill="#8AFFA4"/>
<path d="M351.188 131.823H257.101C255.673 131.823 254.516 132.977 254.516 134.4V213.069C254.516 214.492 255.673 215.646 257.101 215.646H351.188C352.616 215.646 353.773 214.492 353.773 213.069V134.4C353.773 132.977 352.616 131.823 351.188 131.823Z" fill="#65617D"/>
<path d="M349.404 137.467H259.201V207.265H349.404V137.467Z" fill="#8AFFA4"/>
<path opacity="0.1" d="M427.807 212.101V213.934L418.593 214.123V212.101H427.807Z" fill="black"/>
<path d="M469.383 210.554C469.396 210.754 469.369 210.955 469.302 211.145C469.235 211.334 469.131 211.508 468.995 211.656C468.859 211.804 468.695 211.924 468.511 212.007C468.328 212.09 468.13 212.135 467.928 212.14L377.144 214.012C376.767 214.019 376.4 213.885 376.119 213.634C375.837 213.384 375.661 213.037 375.626 212.662L367.823 131.765C367.803 131.564 367.825 131.361 367.887 131.169C367.948 130.977 368.048 130.8 368.181 130.647C368.313 130.495 368.475 130.371 368.657 130.283C368.839 130.195 369.037 130.144 369.239 130.135L459.335 125.666L460.305 125.618C460.69 125.598 461.069 125.728 461.36 125.98C461.651 126.233 461.833 126.589 461.866 126.972L469.383 210.554Z" fill="#65617D"/>
<path d="M373.007 134.889L455.29 130.855L462.239 204.364L380.606 206.298L373.007 134.889Z" fill="#8AFFA4"/>
<path opacity="0.1" d="M469.383 210.554C469.396 210.754 469.369 210.955 469.302 211.145C469.235 211.334 469.131 211.508 468.995 211.656C468.859 211.804 468.694 211.924 468.511 212.007C468.328 212.09 468.13 212.135 467.928 212.14L459.335 125.666L460.305 125.618C460.69 125.598 461.069 125.728 461.36 125.98C461.651 126.233 461.833 126.589 461.866 126.972L469.383 210.554Z" fill="black"/>
<path opacity="0.1" d="M149.585 127.117L138.639 214.302L136.957 214.258C136.664 214.251 136.375 214.183 136.111 214.057C135.846 213.932 135.611 213.752 135.42 213.53C135.23 213.308 135.089 213.048 135.006 212.768C134.923 212.487 134.9 212.193 134.939 211.903L147.369 128.878C147.448 128.36 147.72 127.891 148.131 127.564C148.542 127.238 149.061 127.078 149.585 127.117V127.117Z" fill="black"/>
<path opacity="0.1" d="M179.832 233.182H170.618V241.442H179.832V233.182Z" fill="black"/>
<path opacity="0.1" d="M212.567 318.896V321.3L189.691 321.909V318.896H212.567Z" fill="black"/>
<path d="M252.94 236.059V317.402C252.934 317.898 252.737 318.374 252.389 318.729C252.042 319.085 251.57 319.293 251.073 319.312L158.13 321.778H158.106C157.599 321.772 157.116 321.569 156.758 321.212C156.4 320.855 156.196 320.373 156.19 319.868V236.059C156.196 235.555 156.4 235.072 156.758 234.715C157.116 234.359 157.599 234.155 158.106 234.149H251.024C251.53 234.155 252.014 234.359 252.372 234.715C252.73 235.072 252.933 235.555 252.94 236.059V236.059Z" fill="#65617D"/>
<path opacity="0.1" d="M158.13 234.149V321.778H158.106C157.599 321.772 157.116 321.569 156.758 321.212C156.4 320.855 156.196 320.373 156.19 319.868V236.059C156.196 235.555 156.4 235.072 156.758 234.715C157.116 234.359 157.599 234.155 158.106 234.149H158.13Z" fill="black"/>
<path d="M162.374 239.343H248.454V311.038L162.374 312.972V239.343Z" fill="#D4DFEC"/>
<path opacity="0.1" d="M427.807 233.182H418.593V241.606H427.807V233.182Z" fill="black"/>
<path opacity="0.1" d="M420.131 318.896V321.996L397.255 321.387V318.896H420.131Z" fill="black"/>
<path d="M450.319 236.059V319.868C450.313 320.377 450.106 320.863 449.743 321.22C449.379 321.578 448.89 321.779 448.379 321.778V321.778L355.417 319.312C354.92 319.293 354.448 319.085 354.101 318.729C353.753 318.374 353.556 317.898 353.55 317.402V236.059C353.556 235.555 353.76 235.072 354.118 234.715C354.476 234.359 354.96 234.155 355.466 234.149H448.384C448.894 234.15 449.382 234.351 449.744 234.709C450.106 235.066 450.313 235.551 450.319 236.059V236.059Z" fill="#65617D"/>
<path opacity="0.1" d="M450.319 236.059V319.868C450.313 320.377 450.106 320.863 449.743 321.22C449.38 321.578 448.89 321.779 448.38 321.778V321.778V234.149C448.89 234.149 449.38 234.349 449.743 234.707C450.106 235.065 450.313 235.55 450.319 236.059Z" fill="black"/>
<path d="M444.136 239.343H358.055V311.038L444.136 312.972V239.343Z" fill="#D4DFEC"/>
<path d="M351.145 236.059V317.402C351.139 317.898 350.942 318.374 350.594 318.729C350.247 319.085 349.775 319.293 349.278 319.312L256.335 321.778C255.825 321.779 255.335 321.578 254.972 321.22C254.609 320.863 254.401 320.377 254.395 319.868V236.059C254.401 235.555 254.605 235.072 254.963 234.715C255.321 234.359 255.805 234.155 256.311 234.149H349.229C349.735 234.155 350.219 234.359 350.577 234.715C350.935 235.072 351.139 235.555 351.145 236.059V236.059Z" fill="#65617D"/>
<path d="M260.578 239.343H346.659V311.038L260.578 312.972V239.343Z" fill="#D4DFEC"/>
<path opacity="0.1" d="M486.57 343.077V349.363L412.895 350.04L412.109 350.055L384.108 350.311L383.438 350.321L374.927 350.393H374.675L322.794 350.872L237.63 351.661H237.557L215.903 351.864L215.671 351.868L119.454 352.749V345.495L217.664 344.851H217.897L237.775 344.716H237.867L375.15 343.812H375.291L375.373 343.807H375.601L377.924 343.792H378.632L414.757 343.55L416.891 343.541L417.366 343.536L486.57 343.077Z" fill="black"/>
<path d="M304.302 241.442C318.051 241.442 329.196 230.328 329.196 216.618C329.196 202.909 318.051 191.795 304.302 191.795C290.554 191.795 279.409 202.909 279.409 216.618C279.409 230.328 290.554 241.442 304.302 241.442Z" fill="#FBBEBE"/>
<path d="M329.2 267.397C329.2 267.397 280.947 273.2 285.554 267.397C287.222 265.298 287.683 259.079 287.591 251.994C287.561 249.842 287.484 247.613 287.372 245.393C286.839 234.754 285.554 224.356 285.554 224.356C285.554 224.356 327.745 204.528 322.896 220.245C320.956 226.595 321.591 235.513 323.065 243.884C323.497 246.326 323.997 248.72 324.52 250.993C325.799 256.537 327.361 262.012 329.2 267.397V267.397Z" fill="#FBBEBE"/>
<path opacity="0.1" d="M329.2 267.397C329.2 267.397 280.947 273.2 285.554 267.397C287.222 265.298 287.683 259.079 287.591 251.994C294.947 248.86 304.307 251.196 304.307 251.196C314.162 249.237 320.481 249.619 324.52 250.993C325.799 256.537 327.361 262.012 329.2 267.397V267.397Z" fill="black"/>
<path d="M237.61 352.207V351.801L322.779 350.877L374.67 350.393H374.816L374.762 351.109L374.835 350.393H374.927V350.311L375.592 343.807L375.844 341.345L375.921 340.576L375.989 339.933L378.986 329.966L381.983 320.013L384.505 311.632L388.356 298.826C388.356 298.826 386.173 293.749 384.961 292.298C383.749 290.847 382.536 280.933 382.536 280.933C382.536 280.933 372.187 271.101 367.662 269.97C365.766 269.486 362.022 268.843 358.046 268.035C356.557 267.735 355.029 267.416 353.56 267.068C352.731 266.879 351.916 266.681 351.135 266.483C349.615 266.104 348.118 265.643 346.649 265.1C345.879 264.821 345.146 264.449 344.467 263.992C340.902 261.386 331.969 261.091 331.625 261.091C331.624 261.079 331.624 261.068 331.625 261.057V261.013C331.638 260.81 331.638 260.607 331.625 260.404C331.625 260.21 331.625 259.983 331.581 259.727C331.581 259.65 331.581 259.567 331.547 259.485C331.523 259.311 331.494 259.127 331.45 258.934C331.436 258.847 331.416 258.762 331.392 258.677C331.252 258.095 331.048 257.529 330.786 256.99C330.752 256.912 330.708 256.83 330.67 256.753C330.432 256.306 330.156 255.88 329.845 255.481C329.782 255.399 329.714 255.312 329.642 255.229C329.244 254.762 328.802 254.335 328.322 253.953C328.191 253.851 328.056 253.745 327.915 253.648C327.837 253.584 327.754 253.526 327.668 253.474L327.236 253.193L326.834 252.961C326.48 252.768 326.106 252.579 325.699 252.4C325.573 252.342 325.437 252.289 325.301 252.236C325.165 252.183 324.952 252.1 324.773 252.033H324.743L324.38 251.888C324.103 251.796 323.822 251.714 323.526 251.631L323.075 251.515L322.59 251.404L322.105 251.302C321.62 251.206 321.101 251.119 320.558 251.051L320.005 250.983L319.438 250.925L318.851 250.877L318.017 250.829L317.047 250.795C312.769 250.794 308.504 251.247 304.322 252.144C301.416 251.499 298.441 251.226 295.466 251.331H295.044L294.559 251.36H294.249L293.623 251.419C293.415 251.419 293.202 251.462 292.993 251.491C292.784 251.52 292.566 251.544 292.358 251.578L292.038 251.631C291.722 251.685 291.402 251.743 291.068 251.81C290.961 251.83 290.854 251.854 290.748 251.883C290.326 251.975 289.904 252.086 289.487 252.212C289.278 252.27 289.07 252.337 288.861 252.41C288.754 252.439 288.653 252.478 288.551 252.516L288.24 252.628L287.935 252.748L287.571 252.894C287.387 252.971 287.207 253.053 287.028 253.14C286.926 253.184 286.824 253.232 286.727 253.285C286.63 253.338 286.528 253.382 286.436 253.435C285.34 254 284.326 254.713 283.425 255.553L283.177 255.79L282.935 256.037C282.852 256.119 282.775 256.206 282.697 256.293C282.381 256.638 282.086 257.001 281.815 257.381C281.737 257.483 281.664 257.585 281.592 257.691C281.284 258.144 281.005 258.615 280.757 259.103C280.694 259.219 280.636 259.34 280.578 259.456C280.182 260.273 279.858 261.123 279.608 261.995C279.518 262.317 279.435 262.64 279.361 262.962C279.361 262.962 269.094 267.479 260.578 270.748C258.313 271.619 256.18 272.407 254.395 273.002C253.876 273.176 253.391 273.336 252.94 273.485C251.961 273.838 250.944 274.072 249.909 274.182C249.421 274.19 248.935 274.235 248.454 274.317C244.541 274.951 237.833 277.703 237.101 280.464C237.042 280.684 237.025 280.914 237.053 281.141C237.053 281.141 237.053 281.175 237.053 281.194C237.538 284.579 234.143 284.096 234.143 284.096C234.143 284.096 232.931 293.042 231.233 295.461C230.006 297.202 229.167 301.085 229.061 304.016C229 304.929 229.071 305.846 229.274 306.738C229.274 306.762 229.274 306.787 229.274 306.806C229.468 307.454 229.002 309.224 228.212 311.492C227.353 313.983 226.102 317.078 224.9 319.999C223.086 324.409 221.379 328.413 221.272 329.294C221.228 329.685 221.102 330.387 220.928 331.291C220.22 334.976 218.648 341.993 217.872 344.832C217.295 346.95 216.456 349.852 215.879 351.844C215.879 351.902 215.845 351.96 215.831 352.013L237.572 351.801V352.207H237.64H237.61Z" fill="#8AFFA4"/>
<path opacity="0.1" d="M245.544 295.204C245.544 295.204 273.187 309.471 283.129 307.778L245.544 295.204Z" fill="black"/>
<path opacity="0.1" d="M301.8 289.401C301.8 289.401 328.715 298.106 337.687 299.315C346.659 300.524 301.8 289.401 301.8 289.401Z" fill="black"/>
<path opacity="0.1" d="M331.654 261.391C317.59 263.973 291.112 263.417 279.667 263.025C283.861 248.033 304.317 253.131 304.317 253.131C329.637 248.091 331.577 258.547 331.654 261.391Z" fill="black"/>
<path d="M331.654 260.423C317.59 263.006 291.112 262.449 279.667 262.058C283.861 247.066 304.317 252.163 304.317 252.163C329.637 247.124 331.577 257.58 331.654 260.423Z" fill="#8AFFA4"/>
<path d="M406.309 326.518C406.309 326.518 422.875 323.979 423.2 331.233C423.525 338.487 414.752 343.555 414.752 343.555L406.309 326.518Z" fill="#FBBEBE"/>
<path opacity="0.1" d="M323.065 243.884C322.353 244.202 321.624 244.482 320.883 244.726C315.655 246.525 310.384 248.338 304.879 248.996C299.375 249.653 293.599 249.073 288.798 246.336C288.294 246.052 287.808 245.737 287.343 245.393C286.81 234.754 285.524 224.356 285.524 224.356C285.524 224.356 327.716 204.528 322.866 220.245C320.936 226.595 321.591 235.513 323.065 243.884Z" fill="black"/>
<path d="M297.474 177.818C296.782 178.001 296.057 178.019 295.356 177.872C294.656 177.725 293.999 177.417 293.439 176.972L294.448 178.37C293.854 178.438 293.251 178.376 292.683 178.188C292.115 178 291.595 177.691 291.16 177.282C291.068 178.533 291.121 179.79 291.315 181.03C289.646 181.11 288.003 180.596 286.679 179.579C286.653 180.015 286.762 180.449 286.991 180.821C287.22 181.194 287.558 181.488 287.959 181.663C286.283 181.463 284.59 181.879 283.198 182.832C281.806 183.785 280.809 185.21 280.394 186.843L282.925 187.075C280.936 187.498 279.15 188.585 277.862 190.155C277.086 191.122 276.495 192.361 276.834 193.541C277.174 194.721 278.813 195.475 279.705 194.633C278.436 196.144 277.513 197.914 277.002 199.818C276.491 201.721 276.404 203.714 276.747 205.655C276.977 206.482 277.053 207.344 276.97 208.199C276.81 208.997 276.306 209.688 276.053 210.467C275.568 211.879 276.029 213.412 276.461 214.819L278.735 222.276C279.56 224.97 280.379 227.669 281.456 230.275C282.218 231.923 282.866 233.621 283.396 235.358C284.007 237.699 284.031 240.262 285.336 242.307C286.23 243.595 287.425 244.645 288.818 245.369C293.614 248.106 299.409 248.686 304.899 248.028C310.389 247.371 315.655 245.557 320.878 243.758C322.039 243.41 323.152 242.923 324.196 242.307C327.808 239.947 328.614 235.121 329.288 230.87C330.039 226.131 331.043 221.401 332.823 216.942C333.88 214.287 335.248 211.594 335.015 208.75C334.719 204.973 331.722 201.912 330.98 198.198C330.732 196.956 330.743 195.677 331.014 194.44C331.244 193.703 331.373 192.939 331.397 192.167C331.315 190.61 330.034 189.411 328.832 188.409C326.223 186.236 323.53 184.183 320.752 182.248C320.612 181.281 321.931 180.865 322.527 180.101C323.371 179.023 322.498 177.311 321.218 176.808C319.938 176.305 318.502 176.634 317.168 176.967C317.255 176.287 317.12 175.596 316.781 174.998C316.443 174.401 315.92 173.928 315.291 173.65C314.662 173.373 313.96 173.305 313.289 173.458C312.618 173.61 312.014 173.974 311.567 174.496C311.213 173.686 310.647 172.986 309.929 172.469C309.211 171.952 308.366 171.636 307.484 171.556C304.268 171.304 304.205 173.756 302.149 175.105C300.093 176.455 298.396 174.675 296.815 173.379C296.524 174.112 296.432 174.908 296.548 175.687C296.664 176.466 296.983 177.201 297.474 177.818V177.818Z" fill="#3F3D56"/>
<path d="M418.593 341.026C418.593 341.026 418.162 342.051 417.366 343.536C416.163 345.82 414.698 347.957 413.002 349.905L412.871 350.045H412.085L384.083 350.302H383.414L383.332 350.205L377.9 343.778L375.853 341.355L375.771 341.253L375.596 341.05L375.499 340.934L375.373 340.784L371.392 336.074L372.847 330.029L375.325 319.844L375.388 319.597L375.873 317.663L376.217 316.212L377.371 311.483L381.329 295.209L388.361 298.836L395.776 311.894L399.757 318.906H401.94C402.352 318.906 403.297 319.699 404.248 320.613C404.587 320.937 404.927 321.28 405.218 321.58C406.081 322.47 406.765 323.234 406.765 323.234C406.765 323.234 410.3 323.312 411.251 326.087C411.3 326.222 411.34 326.359 411.372 326.499C411.688 327.59 412.098 328.651 412.599 329.671C413.225 331.03 414.01 332.573 414.806 334.115C416.285 336.944 417.788 339.638 418.341 340.615L418.409 340.736L418.593 341.026Z" fill="#8AFFA4"/>
<path opacity="0.1" d="M376.935 319.191L376.887 319.883V319.931L376.804 321.043L376.159 329.995L375.378 340.779L375.155 343.816L374.67 350.316V350.398L322.779 350.882L237.625 351.801V352.207H237.557V351.801V351.665L237.775 344.721L238.192 331.151L238.551 319.646L238.585 318.5C238.606 317.808 238.769 317.128 239.063 316.501C239.356 315.873 239.775 315.313 240.293 314.852C240.812 314.392 241.419 314.042 242.077 313.823C242.736 313.605 243.432 313.523 244.124 313.581C246.413 313.775 249.385 314.012 252.94 314.263L254.395 314.37C274.923 315.791 312.862 317.629 351.145 315.337C351.95 315.293 352.76 315.245 353.57 315.187C359.506 314.815 365.437 314.336 371.31 313.736C372.052 313.659 372.802 313.744 373.508 313.987C374.214 314.23 374.857 314.624 375.394 315.142C375.93 315.66 376.346 316.289 376.612 316.984C376.879 317.679 376.989 318.425 376.935 319.167V319.191Z" fill="black"/>
<path d="M237.61 352.207V351.801L322.779 350.877L374.67 350.393H374.816V350.311L375.301 343.812L375.509 340.91L376.304 329.976L376.93 321.319V321.106C376.959 320.707 376.941 320.306 376.877 319.912C376.879 319.896 376.879 319.879 376.877 319.863C376.744 319.047 376.41 318.276 375.907 317.619C375.373 316.937 374.673 316.401 373.874 316.062C373.075 315.724 372.202 315.594 371.338 315.685C365.466 316.285 359.535 316.763 353.599 317.136C352.789 317.194 351.979 317.242 351.174 317.286C312.891 319.554 274.952 317.716 254.424 316.319L252.969 316.212C249.414 315.961 246.442 315.729 244.152 315.53C242.893 315.424 241.639 315.787 240.633 316.549C239.626 317.311 238.938 318.418 238.702 319.655C238.653 319.917 238.623 320.182 238.614 320.449L238.284 331.165L237.833 344.74L237.62 351.685V351.82V352.226L237.61 352.207Z" fill="#3F3D56"/>
<path opacity="0.1" d="M377.08 322.581L376.484 329.995L375.596 341.045L375.373 343.812L374.888 350.007L374.859 350.316V350.398L374.786 351.114L374.84 350.398H374.699L322.808 350.882L237.625 351.801V351.665L237.862 344.721L238.347 331.151L238.658 322.131C238.673 321.618 238.817 321.117 239.076 320.674C239.335 320.23 239.702 319.859 240.142 319.592C240.691 319.257 241.333 319.104 241.975 319.157C242.993 319.239 244.244 319.336 245.704 319.443C248.076 319.617 251 319.82 254.404 320.033C260.709 320.429 268.619 320.855 277.683 321.203C302.901 322.17 336.945 322.494 369.282 319.67C370.737 319.544 372.24 319.404 373.71 319.264C374.291 319.206 374.877 319.317 375.397 319.583C375.545 319.656 375.684 319.743 375.815 319.844C376.237 320.149 376.571 320.559 376.784 321.034C376.834 321.128 376.874 321.227 376.906 321.329C377.051 321.729 377.111 322.156 377.08 322.581V322.581Z" fill="black"/>
<path opacity="0.1" d="M212.567 329.202V330.744C212.567 331.305 212.408 331.855 212.108 332.329C211.807 332.803 211.378 333.183 210.87 333.424L191.423 333.796C190.906 333.56 190.468 333.18 190.161 332.703C189.854 332.225 189.691 331.67 189.691 331.102V329.652L212.567 329.202Z" fill="black"/>
<path d="M212.809 334.333L187.47 334.816V330.624L212.809 330.14V334.333Z" fill="#3F3D56"/>
<path opacity="0.1" d="M212.809 334.333L187.47 334.816V330.624L212.809 330.14V334.333Z" fill="black"/>
<path d="M213.779 334.333L188.44 334.816V330.624L213.779 330.14V334.333Z" fill="#3F3D56"/>
<g opacity="0.1">
<path opacity="0.1" d="M297.673 176.232C297.199 175.618 296.884 174.897 296.756 174.133C296.639 174.88 296.709 175.644 296.96 176.358C297.201 176.336 297.439 176.294 297.673 176.232Z" fill="black"/>
<path opacity="0.1" d="M291.514 179.443C291.422 178.85 291.363 178.253 291.334 177.654C291.334 178.249 291.334 178.848 291.334 179.448L291.514 179.443Z" fill="black"/>
<path opacity="0.1" d="M331.038 195.581C331.065 195.151 331.124 194.722 331.213 194.3C331.442 193.564 331.573 192.802 331.601 192.032C331.59 191.859 331.564 191.687 331.523 191.519C331.441 191.964 331.31 192.409 331.213 192.849C331.019 193.746 330.961 194.667 331.038 195.581Z" fill="black"/>
<path opacity="0.1" d="M320.951 180.638L321.48 181.02C321.925 180.699 322.342 180.339 322.726 179.946C322.909 179.695 323.022 179.4 323.054 179.091C323.086 178.782 323.037 178.47 322.91 178.186C322.862 178.297 322.8 178.4 322.726 178.496C322.13 179.26 320.81 179.68 320.951 180.638Z" fill="black"/>
<path opacity="0.1" d="M281.102 185.29C280.925 185.643 280.783 186.012 280.68 186.393C281.438 185.97 282.255 185.662 283.104 185.479L281.102 185.29Z" fill="black"/>
<path opacity="0.1" d="M287.79 180.029C287.471 179.854 287.166 179.655 286.878 179.434C286.866 179.625 286.88 179.817 286.922 180.004C287.211 179.991 287.501 179.999 287.79 180.029V180.029Z" fill="black"/>
<path opacity="0.1" d="M335.204 208.523C335.005 210.868 333.909 213.127 333.022 215.351C331.242 219.81 330.238 224.54 329.486 229.284C328.812 233.535 328.032 238.361 324.394 240.716C323.355 241.335 322.242 241.823 321.082 242.167C315.854 243.971 310.583 245.78 305.078 246.437C299.574 247.095 293.798 246.52 288.997 243.782C287.605 243.058 286.41 242.008 285.515 240.721C284.22 238.675 284.196 236.112 283.575 233.772C283.046 232.034 282.398 230.334 281.635 228.684C280.564 226.082 279.739 223.364 278.92 220.69C278.16 218.204 277.402 215.717 276.645 213.228C276.396 212.479 276.211 211.711 276.092 210.931C275.903 212.169 276.272 213.465 276.645 214.679C277.402 217.171 278.16 219.658 278.92 222.141C279.739 224.835 280.564 227.533 281.635 230.135C282.398 231.785 283.046 233.484 283.575 235.223C284.186 237.563 284.21 240.126 285.515 242.172C286.41 243.458 287.605 244.509 288.997 245.233C293.798 247.97 299.589 248.546 305.078 247.888C310.568 247.23 315.835 245.422 321.082 243.618C322.242 243.274 323.355 242.786 324.394 242.167C328.007 239.812 328.812 234.986 329.486 230.735C330.238 225.99 331.242 221.261 333.022 216.802C334.079 214.152 335.447 211.458 335.214 208.61C335.214 208.581 335.204 208.552 335.204 208.523Z" fill="black"/>
<path opacity="0.1" d="M277.159 206.651C277.159 206.651 277.159 206.617 277.159 206.598C277.247 205.745 277.171 204.883 276.936 204.059C276.84 203.528 276.776 202.992 276.747 202.453C276.691 203.476 276.755 204.502 276.936 205.51C277.014 205.887 277.101 206.269 277.159 206.651Z" fill="black"/>
<path opacity="0.1" d="M278.638 194.822C279.011 194.197 279.434 193.604 279.904 193.047C279.016 193.893 277.377 193.139 277.033 191.964C276.906 192.439 276.906 192.939 277.033 193.415C277.152 193.77 277.364 194.087 277.646 194.334C277.928 194.581 278.27 194.749 278.638 194.822V194.822Z" fill="black"/>
</g>
<path opacity="0.1" d="M399.762 318.901C399.762 318.901 401.3 324.462 399.762 329.299C398.225 334.135 399.762 318.901 399.762 318.901Z" fill="black"/>
<path opacity="0.1" d="M406.309 324.574C406.309 324.574 406.954 331.634 405.499 332.887C404.044 334.139 406.309 324.574 406.309 324.574Z" fill="black"/>
<path d="M164.503 250.809L213.78 250.326" stroke="#8AFFA4" stroke-width="2" stroke-miterlimit="10"/>
<path d="M164.503 256.84L213.78 256.361" stroke="#8AFFA4" stroke-width="2" stroke-miterlimit="10"/>
<path d="M164.503 262.875L213.78 262.392" stroke="#8AFFA4" stroke-width="2" stroke-miterlimit="10"/>
</g>
<path d="M170.423 544.216C170.423 552.604 175.175 557.212 186.263 557.212C196.307 557.212 201.347 553.36 201.995 546.052H195.407C194.795 550.156 191.627 551.776 186.263 551.776C179.711 551.776 176.903 549.4 176.903 544.216C176.903 539.068 179.675 536.728 186.263 536.728C191.663 536.728 194.795 538.312 195.407 542.38H201.995C201.347 535.108 196.307 531.292 186.263 531.292C175.175 531.292 170.423 535.864 170.423 544.216ZM219.837 557.212C230.889 557.212 235.677 552.568 235.677 544.216C235.677 535.9 230.889 531.292 219.837 531.292C208.749 531.292 203.997 535.864 203.997 544.216C203.997 552.604 208.749 557.212 219.837 557.212ZM219.837 551.776C213.105 551.776 210.477 549.4 210.477 544.216C210.477 539.068 213.069 536.728 219.837 536.728C226.605 536.728 229.197 539.104 229.197 544.216C229.197 549.364 226.569 551.776 219.837 551.776ZM276.629 531.652H267.881L257.333 549.436L246.785 531.652H238.037V556.852H244.517V539.572L254.993 556.852H259.673L270.149 539.572V556.852H276.629V531.652ZM299.321 531.652H279.521V556.852H286.001V550.12H299.321C305.045 550.12 308.969 546.52 308.969 540.904C308.969 535.288 305.045 531.652 299.321 531.652ZM297.521 544.684H286.001V537.088H297.521C299.465 537.088 302.489 537.088 302.489 540.904C302.489 544.684 299.465 544.684 297.521 544.684ZM343.158 544.216V531.652H336.678V544.216C336.678 547.708 335.706 551.776 327.318 551.776C318.93 551.776 317.958 547.744 317.958 544.216V531.652H311.478V544.216C311.478 553 316.23 557.212 327.318 557.212C338.37 557.212 343.158 552.964 343.158 544.216ZM376.461 531.652H345.501V537.088H357.741V556.852H364.221V537.088H376.461V531.652ZM405.232 536.8V531.652H378.592V556.852H405.232V551.704H385.072V546.592H405.232V541.912H385.072V536.8H405.232ZM437.043 540.904C437.043 535.288 433.119 531.652 427.395 531.652H407.595V556.852H414.075V550.12H424.515L428.583 556.852H436.215L431.571 549.364C434.955 548.032 437.043 545.008 437.043 540.904ZM414.075 537.088H425.595C427.539 537.088 430.563 537.088 430.563 540.904C430.563 544.684 427.539 544.684 425.595 544.684H414.075V537.088ZM438.419 548.176C438.419 555.448 444.575 557.212 454.907 557.212C464.231 557.212 470.603 555.844 470.603 549.112C470.603 542.74 464.447 542.2 454.511 541.66C447.167 541.228 445.655 540.868 445.655 538.924C445.655 537.052 447.167 536.44 453.539 536.44C460.271 536.44 463.043 537.124 463.043 539.896H469.523C469.523 533.668 463.763 531.292 454.259 531.292C444.827 531.292 439.175 533.056 439.175 538.6C439.175 544.252 443.531 545.98 454.511 546.484C462.683 546.88 464.123 547.24 464.123 549.328C464.123 551.308 462.071 552.064 455.267 552.064C447.059 552.064 444.899 550.84 444.899 548.176H438.419Z" fill="#197717"/>
</g>
<defs>
<filter id="filter0_ii" x="-4" y="-4" width="643" height="643" filterUnits="userSpaceOnUse" color-interpolation-filters="sRGB">
<feFlood flood-opacity="0" result="BackgroundImageFix"/>
<feBlend mode="normal" in="SourceGraphic" in2="BackgroundImageFix" result="shape"/>
<feColorMatrix in="SourceAlpha" type="matrix" values="0 0 0 0 0 0 0 0 0 0 0 0 0 0 0 0 0 0 127 0" result="hardAlpha"/>
<feOffset dx="4" dy="-4"/>
<feGaussianBlur stdDeviation="5"/>
<feComposite in2="hardAlpha" operator="arithmetic" k2="-1" k3="1"/>
<feColorMatrix type="matrix" values="0 0 0 0 0 0 0 0 0 0 0 0 0 0 0 0 0 0 0.2 0"/>
<feBlend mode="normal" in2="shape" result="effect1_innerShadow"/>
<feColorMatrix in="SourceAlpha" type="matrix" values="0 0 0 0 0 0 0 0 0 0 0 0 0 0 0 0 0 0 127 0" result="hardAlpha"/>
<feOffset dx="-4" dy="4"/>
<feGaussianBlur stdDeviation="3"/>
<feComposite in2="hardAlpha" operator="arithmetic" k2="-1" k3="1"/>
<feColorMatrix type="matrix" values="0 0 0 0 1 0 0 0 0 1 0 0 0 0 1 0 0 0 0.5 0"/>
<feBlend mode="normal" in2="effect1_innerShadow" result="effect2_innerShadow"/>
</filter>
<linearGradient id="paint0_linear" x1="527.5" y1="76" x2="178" y2="462.5" gradientUnits="userSpaceOnUse">
<stop stop-color="#8AFFA4"/>
<stop offset="1" stop-color="#B6FFC6" stop-opacity="0.71"/>
</linearGradient>
<linearGradient id="paint1_linear" x1="343.229" y1="692.09" x2="345.993" y2="418.151" gradientUnits="userSpaceOnUse">
<stop stop-color="#CCFFD9"/>
<stop offset="1" stop-color="#32DE5D" stop-opacity="0.33"/>
</linearGradient>
<linearGradient id="paint2_linear" x1="290.771" y1="678.579" x2="289.16" y2="469.463" gradientUnits="userSpaceOnUse">
<stop stop-color="#CCFFD9"/>
<stop offset="1" stop-color="#32DE5D" stop-opacity="0.33"/>
</linearGradient>
<clipPath id="clip0">
<rect width="505" height="268" fill="white" transform="translate(68 85)"/>
</clipPath>
</defs>
</svg>
