<svg width="2053" height="2053" viewBox="0 0 2053 2053" fill="none" xmlns="http://www.w3.org/2000/svg">
<path d="M2053 1026.5C2053 1593.42 1593.42 2053 1026.5 2053C459.58 2053 0 1593.42 0 1026.5C0 459.58 459.58 0 1026.5 0C1593.42 0 2053 459.58 2053 1026.5Z" fill="#E0DCFF"/>
<path d="M1861.56 1026.5C1861.56 1487.69 1487.69 1861.56 1026.5 1861.56C565.308 1861.56 191.437 1487.69 191.437 1026.5C191.437 565.308 565.308 191.437 1026.5 191.437C1487.69 191.437 1861.56 565.308 1861.56 1026.5Z" fill="#7881FF" fill-opacity="0.25"/>
<path d="M1674.53 1027.6C1674.53 1384.89 1384.89 1674.53 1027.6 1674.53C670.313 1674.53 380.674 1384.89 380.674 1027.6C380.674 670.312 670.313 380.674 1027.6 380.674C1384.89 380.674 1674.53 670.312 1674.53 1027.6Z" fill="#8388FB" fill-opacity="0.25"/>
<g clip-path="url(#clip0)">
<path d="M562.42 1281.9L560.899 1281.33C560.565 1281.2 527.299 1268.45 511.716 1239.53C496.132 1210.61 503.762 1175.79 503.841 1175.44L504.201 1173.86L505.721 1174.43C506.055 1174.55 539.321 1187.31 554.905 1216.23C570.488 1245.15 562.858 1279.97 562.779 1280.31L562.42 1281.9ZM514.211 1238.18C527.386 1262.64 553.674 1275.17 560.335 1278.03C561.601 1270.89 565.573 1242 552.409 1217.57C539.247 1193.15 512.949 1180.59 506.286 1177.73C505.018 1184.87 501.048 1213.76 514.211 1238.18Z" fill="#3F3D56"/>
<path d="M523.625 1229.39C551.63 1246.25 562.416 1279.74 562.416 1279.74C562.416 1279.74 527.796 1285.89 499.791 1269.03C471.786 1252.17 461 1218.68 461 1218.68C461 1218.68 495.62 1212.53 523.625 1229.39Z" fill="#D0CDE1"/>
<path d="M1419.89 790.441H1107.6V784H965.993V790.441H652.415C649.641 790.441 646.894 790.988 644.331 792.05C641.768 793.112 639.439 794.669 637.478 796.632C635.516 798.595 633.96 800.925 632.899 803.49C631.837 806.055 631.291 808.803 631.291 811.579V1239.49C631.291 1245.09 633.516 1250.47 637.478 1254.43C641.439 1258.4 646.812 1260.63 652.415 1260.63H1419.89C1422.66 1260.63 1425.41 1260.08 1427.97 1259.02C1430.53 1257.95 1432.86 1256.4 1434.82 1254.43C1436.79 1252.47 1438.34 1250.14 1439.4 1247.58C1440.47 1245.01 1441.01 1242.26 1441.01 1239.49V811.579C1441.01 808.803 1440.47 806.054 1439.4 803.49C1438.34 800.925 1436.79 798.595 1434.82 796.632C1432.86 794.669 1430.53 793.112 1427.97 792.05C1425.41 790.988 1422.66 790.441 1419.89 790.441Z" fill="#3F3D56"/>
<path d="M1412.69 827.798H659.612V1252.9H1412.69V827.798Z" fill="#6C63FF"/>
<path d="M1035.51 816.204C1039.77 816.204 1043.23 812.744 1043.23 808.475C1043.23 804.207 1039.77 800.746 1035.51 800.746C1031.24 800.746 1027.78 804.207 1027.78 808.475C1027.78 812.744 1031.24 816.204 1035.51 816.204Z" fill="#6C63FF"/>
<path d="M1369.46 881.901H1333.76V846.179H1369.46V881.901ZM1335.31 880.348H1367.91V847.732H1335.31V880.348Z" fill="#3F3D56"/>
<path d="M1462.16 1245.17H1388.66V1239.87C1388.66 1239.73 1388.63 1239.59 1388.58 1239.47C1388.53 1239.34 1388.45 1239.22 1388.35 1239.13C1388.26 1239.03 1388.14 1238.95 1388.01 1238.9C1387.89 1238.85 1387.75 1238.82 1387.61 1238.82H1362.41C1362.27 1238.82 1362.14 1238.85 1362.01 1238.9C1361.88 1238.95 1361.77 1239.03 1361.67 1239.13C1361.57 1239.22 1361.5 1239.34 1361.44 1239.47C1361.39 1239.59 1361.36 1239.73 1361.36 1239.87V1245.17H1345.61V1239.87C1345.61 1239.73 1345.59 1239.59 1345.53 1239.47C1345.48 1239.34 1345.4 1239.22 1345.31 1239.13C1345.21 1239.03 1345.09 1238.95 1344.97 1238.9C1344.84 1238.85 1344.7 1238.82 1344.56 1238.82H1319.37C1319.23 1238.82 1319.09 1238.85 1318.96 1238.9C1318.84 1238.95 1318.72 1239.03 1318.62 1239.13C1318.53 1239.22 1318.45 1239.34 1318.4 1239.47C1318.34 1239.59 1318.32 1239.73 1318.32 1239.87V1245.17H1302.57V1239.87C1302.57 1239.73 1302.54 1239.59 1302.49 1239.47C1302.43 1239.34 1302.36 1239.22 1302.26 1239.13C1302.16 1239.03 1302.05 1238.95 1301.92 1238.9C1301.79 1238.85 1301.65 1238.82 1301.52 1238.82H1276.32C1276.18 1238.82 1276.04 1238.85 1275.92 1238.9C1275.79 1238.95 1275.67 1239.03 1275.58 1239.13C1275.48 1239.22 1275.4 1239.34 1275.35 1239.47C1275.3 1239.59 1275.27 1239.73 1275.27 1239.87V1245.17H1259.52V1239.87C1259.52 1239.73 1259.49 1239.59 1259.44 1239.47C1259.39 1239.34 1259.31 1239.22 1259.21 1239.13C1259.11 1239.03 1259 1238.95 1258.87 1238.9C1258.74 1238.85 1258.61 1238.82 1258.47 1238.82H1233.27C1233.13 1238.82 1233 1238.85 1232.87 1238.9C1232.74 1238.95 1232.63 1239.03 1232.53 1239.13C1232.43 1239.22 1232.35 1239.34 1232.3 1239.47C1232.25 1239.59 1232.22 1239.73 1232.22 1239.87V1245.17H1216.47V1239.87C1216.47 1239.73 1216.44 1239.59 1216.39 1239.47C1216.34 1239.34 1216.26 1239.22 1216.16 1239.13C1216.07 1239.03 1215.95 1238.95 1215.82 1238.9C1215.7 1238.85 1215.56 1238.82 1215.42 1238.82H1190.22C1190.09 1238.82 1189.95 1238.85 1189.82 1238.9C1189.69 1238.95 1189.58 1239.03 1189.48 1239.13C1189.38 1239.22 1189.31 1239.34 1189.25 1239.47C1189.2 1239.59 1189.17 1239.73 1189.17 1239.87V1245.17H1173.42V1239.87C1173.42 1239.73 1173.4 1239.59 1173.34 1239.47C1173.29 1239.34 1173.21 1239.22 1173.12 1239.13C1173.02 1239.03 1172.9 1238.95 1172.78 1238.9C1172.65 1238.85 1172.51 1238.82 1172.37 1238.82H1147.18C1147.04 1238.82 1146.9 1238.85 1146.77 1238.9C1146.65 1238.95 1146.53 1239.03 1146.43 1239.13C1146.34 1239.22 1146.26 1239.34 1146.21 1239.47C1146.15 1239.59 1146.13 1239.73 1146.13 1239.87V1245.17H1130.38V1239.87C1130.38 1239.73 1130.35 1239.59 1130.3 1239.47C1130.24 1239.34 1130.17 1239.22 1130.07 1239.13C1129.97 1239.03 1129.86 1238.95 1129.73 1238.9C1129.6 1238.85 1129.46 1238.82 1129.33 1238.82H931.938C931.8 1238.82 931.664 1238.85 931.536 1238.9C931.409 1238.95 931.293 1239.03 931.196 1239.13C931.098 1239.22 931.021 1239.34 930.968 1239.47C930.915 1239.59 930.888 1239.73 930.888 1239.87V1245.17H915.139V1239.87C915.139 1239.73 915.112 1239.59 915.059 1239.47C915.006 1239.34 914.929 1239.22 914.832 1239.13C914.734 1239.03 914.618 1238.95 914.491 1238.9C914.364 1238.85 914.227 1238.82 914.089 1238.82H888.891C888.753 1238.82 888.616 1238.85 888.489 1238.9C888.361 1238.95 888.246 1239.03 888.148 1239.13C888.051 1239.22 887.973 1239.34 887.921 1239.47C887.868 1239.59 887.841 1239.73 887.841 1239.87V1245.17H872.092V1239.87C872.092 1239.73 872.065 1239.59 872.012 1239.47C871.959 1239.34 871.882 1239.22 871.784 1239.13C871.687 1239.03 871.571 1238.95 871.444 1238.9C871.316 1238.85 871.18 1238.82 871.042 1238.82H845.843C845.705 1238.82 845.569 1238.85 845.441 1238.9C845.314 1238.95 845.198 1239.03 845.101 1239.13C845.003 1239.22 844.926 1239.34 844.873 1239.47C844.82 1239.59 844.793 1239.73 844.793 1239.87V1245.17H829.044V1239.87C829.044 1239.73 829.017 1239.59 828.964 1239.47C828.912 1239.34 828.834 1239.22 828.737 1239.13C828.639 1239.03 828.523 1238.95 828.396 1238.9C828.269 1238.85 828.132 1238.82 827.994 1238.82H802.796C802.658 1238.82 802.521 1238.85 802.394 1238.9C802.267 1238.95 802.151 1239.03 802.053 1239.13C801.956 1239.22 801.878 1239.34 801.826 1239.47C801.773 1239.59 801.746 1239.73 801.746 1239.87V1245.17H785.997V1239.87C785.997 1239.73 785.97 1239.59 785.917 1239.47C785.864 1239.34 785.787 1239.22 785.689 1239.13C785.592 1239.03 785.476 1238.95 785.349 1238.9C785.221 1238.85 785.085 1238.82 784.947 1238.82H759.748C759.61 1238.82 759.474 1238.85 759.346 1238.9C759.219 1238.95 759.103 1239.03 759.006 1239.13C758.908 1239.22 758.831 1239.34 758.778 1239.47C758.725 1239.59 758.698 1239.73 758.698 1239.87V1245.17H742.949V1239.87C742.949 1239.73 742.922 1239.59 742.869 1239.47C742.817 1239.34 742.739 1239.22 742.642 1239.13C742.544 1239.03 742.428 1238.95 742.301 1238.9C742.174 1238.85 742.037 1238.82 741.899 1238.82H716.701C716.563 1238.82 716.426 1238.85 716.299 1238.9C716.172 1238.95 716.056 1239.03 715.958 1239.13C715.861 1239.22 715.784 1239.34 715.731 1239.47C715.678 1239.59 715.651 1239.73 715.651 1239.87V1245.17H699.902V1239.87C699.902 1239.73 699.875 1239.59 699.822 1239.47C699.769 1239.34 699.692 1239.22 699.594 1239.13C699.497 1239.03 699.381 1238.95 699.254 1238.9C699.126 1238.85 698.99 1238.82 698.852 1238.82H673.653C673.515 1238.82 673.379 1238.85 673.252 1238.9C673.124 1238.95 673.008 1239.03 672.911 1239.13C672.813 1239.22 672.736 1239.34 672.683 1239.47C672.631 1239.59 672.603 1239.73 672.603 1239.87V1245.17H624.306C617.623 1245.17 611.214 1247.82 606.488 1252.55C601.763 1257.28 599.108 1263.7 599.108 1270.38V1281.78C599.108 1288.47 601.763 1294.89 606.488 1299.61C611.214 1304.34 617.623 1307 624.306 1307H1462.16C1468.84 1307 1475.25 1304.34 1479.97 1299.61C1484.7 1294.89 1487.36 1288.47 1487.36 1281.78V1270.38C1487.36 1263.7 1484.7 1257.28 1479.97 1252.55C1475.25 1247.82 1468.84 1245.17 1462.16 1245.17Z" fill="#3F3D56"/>
<path d="M1591 1281.13H495.463V1284.48H1591V1281.13Z" fill="#3F3D56"/>
<path d="M1366.14 1064.67H1123.67V926.54H1366.14V1064.67ZM1126.07 1062.27H1363.74V928.942H1126.07V1062.27Z" fill="#3F3D56"/>
<path d="M922.015 1092.3H705.954V957.77H922.015V1092.3ZM708.355 1089.89H919.614V960.172H708.355V1089.89Z" fill="#3F3D56"/>
<path d="M806.895 1040.65L806.689 1037.96C806.07 1032.38 807.928 1026.29 813.089 1020.09C817.734 1014.62 820.315 1010.59 820.315 1005.94C820.315 1000.67 817.011 997.161 810.508 997.058C806.789 997.042 803.152 998.159 800.082 1000.26L797.604 993.752C801.012 991.272 806.895 989.62 812.366 989.62C824.238 989.62 829.605 996.954 829.605 1004.8C829.605 1011.83 825.682 1016.89 820.727 1022.78C816.186 1028.15 814.534 1032.69 814.843 1037.96L814.947 1040.65L806.895 1040.65ZM804.624 1055.11C804.569 1054.27 804.688 1053.42 804.976 1052.63C805.263 1051.83 805.712 1051.11 806.294 1050.5C806.876 1049.88 807.579 1049.4 808.358 1049.07C809.136 1048.75 809.974 1048.59 810.818 1048.6C814.431 1048.6 816.908 1051.29 816.908 1055.11C816.942 1055.94 816.809 1056.77 816.516 1057.54C816.222 1058.32 815.775 1059.02 815.202 1059.62C814.628 1060.22 813.939 1060.7 813.177 1061.02C812.415 1061.35 811.595 1061.51 810.766 1061.51C809.938 1061.51 809.118 1061.35 808.355 1061.02C807.593 1060.7 806.905 1060.22 806.331 1059.62C805.757 1059.02 805.31 1058.32 805.017 1057.54C804.724 1056.77 804.59 1055.94 804.624 1055.11Z" fill="#D0CDE1"/>
<path d="M1237.82 1010.62L1237.61 1007.93C1236.99 1002.36 1238.85 996.261 1244.01 990.064C1248.65 984.589 1251.23 980.561 1251.23 975.912C1251.23 970.644 1247.93 967.132 1241.43 967.029C1237.71 967.014 1234.07 968.131 1231 970.232L1228.52 963.724C1231.93 961.244 1237.82 959.591 1243.29 959.591C1255.16 959.591 1260.53 966.926 1260.53 974.776C1260.53 981.801 1256.6 986.862 1251.65 992.749C1247.11 998.12 1245.45 1002.67 1245.76 1007.93L1245.87 1010.62L1237.82 1010.62ZM1235.54 1025.08C1235.49 1024.24 1235.61 1023.39 1235.9 1022.6C1236.18 1021.81 1236.63 1021.08 1237.21 1020.47C1237.8 1019.86 1238.5 1019.37 1239.28 1019.05C1240.06 1018.72 1240.89 1018.56 1241.74 1018.57C1245.35 1018.57 1247.83 1021.26 1247.83 1025.08C1247.86 1025.91 1247.73 1026.74 1247.44 1027.51C1247.14 1028.29 1246.7 1029 1246.12 1029.59C1245.55 1030.19 1244.86 1030.67 1244.1 1030.99C1243.34 1031.32 1242.52 1031.49 1241.69 1031.49C1240.86 1031.49 1240.04 1031.32 1239.28 1030.99C1238.51 1030.67 1237.82 1030.19 1237.25 1029.59C1236.68 1029 1236.23 1028.29 1235.94 1027.51C1235.64 1026.74 1235.51 1025.91 1235.54 1025.08Z" fill="#D0CDE1"/>
<path d="M1040.39 1200.96C1097.6 1200.96 1143.97 1154.56 1143.97 1097.32C1143.97 1040.07 1097.6 993.667 1040.39 993.667C983.188 993.667 936.814 1040.07 936.814 1097.32C936.814 1154.56 983.188 1200.96 1040.39 1200.96Z" fill="#2F2E41"/>
<path d="M1000.39 1239.25L969.423 1233.64L979.467 1168.95L1010.43 1174.55L1000.39 1239.25Z" fill="#2F2E41"/>
<path d="M1072.36 1185.77L1041.39 1180.16L1031.35 1235.68L1062.32 1241.29L1072.36 1185.77Z" fill="#2F2E41"/>
<path d="M1083.01 1244.31C1084.09 1238.98 1073.45 1232.34 1059.25 1229.47C1045.06 1226.61 1032.68 1228.6 1031.6 1233.93C1030.53 1239.25 1041.17 1245.9 1055.36 1248.76C1069.56 1251.63 1081.94 1249.64 1083.01 1244.31Z" fill="#2F2E41"/>
<path d="M1018.52 1242.64C1019.23 1237.25 1008.17 1231.34 993.815 1229.44C979.458 1227.53 967.241 1230.36 966.528 1235.75C965.815 1241.13 976.875 1247.04 991.232 1248.95C1005.59 1250.85 1017.81 1248.03 1018.52 1242.64Z" fill="#2F2E41"/>
<path d="M1047.64 1107.39C1067.2 1107.39 1083.05 1091.53 1083.05 1071.96C1083.05 1052.4 1067.2 1036.54 1047.64 1036.54C1028.09 1036.54 1012.24 1052.4 1012.24 1071.96C1012.24 1091.53 1028.09 1107.39 1047.64 1107.39Z" fill="white"/>
<path d="M1062.19 1071.07C1068.71 1071.07 1073.99 1065.79 1073.99 1059.26C1073.99 1052.74 1068.71 1047.46 1062.19 1047.46C1055.68 1047.46 1050.39 1052.74 1050.39 1059.26C1050.39 1065.79 1055.68 1071.07 1062.19 1071.07Z" fill="#3F3D56"/>
<path d="M958.683 984.556C957.126 946.184 990.175 913.682 1032.5 911.962C1074.83 910.242 1110.4 939.954 1111.96 978.326C1113.52 1016.7 1084.1 1025.42 1041.77 1027.14C999.443 1028.86 960.241 1022.93 958.683 984.556Z" fill="white"/>
<path d="M1139.67 1094.29C1167.55 1087.9 1188.52 1075.61 1186.52 1066.85C1184.51 1058.1 1160.28 1056.18 1132.4 1062.57C1104.52 1068.97 1083.55 1081.25 1085.55 1090.01C1087.56 1098.77 1111.79 1100.69 1139.67 1094.29Z" fill="#2F2E41"/>
<path d="M936.344 1128.13C964.224 1121.73 985.199 1109.45 983.193 1100.69C981.186 1091.93 956.959 1090.01 929.079 1096.41C901.2 1102.8 880.225 1115.09 882.231 1123.85C884.237 1132.6 908.465 1134.52 936.344 1128.13Z" fill="#2F2E41"/>
<path d="M1011.95 1138.16C1011.39 1141.21 1011.45 1144.34 1012.1 1147.38C1012.76 1150.41 1014.01 1153.28 1015.77 1155.83C1017.54 1158.38 1019.79 1160.55 1022.4 1162.23C1025 1163.91 1027.91 1165.06 1030.96 1165.61C1034.01 1166.16 1037.14 1166.11 1040.17 1165.45C1043.2 1164.79 1046.07 1163.54 1048.62 1161.78C1051.16 1160.01 1053.34 1157.76 1055.01 1155.15C1056.69 1152.54 1057.84 1149.63 1058.39 1146.58C1060.71 1133.74 1050.8 1129.2 1037.97 1126.88C1025.15 1124.55 1014.27 1125.33 1011.95 1138.16Z" fill="white"/>
<path d="M816.805 799.762H646.494V961.876H816.805V799.762Z" fill="#D0CDE1"/>
<path d="M797.452 819.128H665.847V919.834H797.452V819.128Z" fill="white"/>
<path d="M737.301 931.715H665.717V935.485H737.301V931.715Z" fill="#F2F2F2"/>
<path d="M737.301 943.026H665.717V946.796H737.301V943.026Z" fill="#F2F2F2"/>
<path d="M689.264 884.589C697.587 884.589 704.334 877.837 704.334 869.509C704.334 861.18 697.587 854.428 689.264 854.428C680.941 854.428 674.194 861.18 674.194 869.509C674.194 877.837 680.941 884.589 689.264 884.589Z" fill="#3F3D56"/>
<path d="M731.649 884.589C739.973 884.589 746.72 877.837 746.72 869.509C746.72 861.18 739.973 854.428 731.649 854.428C723.326 854.428 716.579 861.18 716.579 869.509C716.579 877.837 723.326 884.589 731.649 884.589Z" fill="#6C63FF"/>
<path d="M774.035 884.589C782.358 884.589 789.105 877.837 789.105 869.509C789.105 861.18 782.358 854.428 774.035 854.428C765.712 854.428 758.964 861.18 758.964 869.509C758.964 877.837 765.712 884.589 774.035 884.589Z" fill="#E6E6E6"/>
<path d="M731.649 816.727C735.811 816.727 739.185 813.351 739.185 809.187C739.185 805.022 735.811 801.646 731.649 801.646C727.488 801.646 724.114 805.022 724.114 809.187C724.114 813.351 727.488 816.727 731.649 816.727Z" fill="#3F3D56"/>
<path d="M897.813 1113.66H727.501V1275.78H897.813V1113.66Z" fill="#D0CDE1"/>
<path d="M878.459 1133.03H746.854V1233.74H878.459V1133.03Z" fill="white"/>
<path d="M821.951 1149.58H775.814V1195.75H821.951V1149.58Z" fill="#6C63FF"/>
<path d="M793.476 1161.12V1217.19H849.5V1161.12H793.476ZM847.07 1214.75H795.906V1163.56H847.07V1214.75Z" fill="#3F3D56"/>
<path d="M818.308 1243.73H746.724V1247.5H818.308V1243.73Z" fill="#F2F2F2"/>
<path d="M812.657 1130.63C816.818 1130.63 820.192 1127.25 820.192 1123.09C820.192 1118.92 816.818 1115.55 812.657 1115.55C808.495 1115.55 805.122 1118.92 805.122 1123.09C805.122 1127.25 808.495 1130.63 812.657 1130.63Z" fill="#3F3D56"/>
<path d="M1341.23 1065.13H1170.92V1227.24H1341.23V1065.13Z" fill="#D0CDE1"/>
<path d="M1321.88 1084.5H1190.28V1185.2H1321.88V1084.5Z" fill="white"/>
<path d="M1270.23 1163.33H1241.92V1171.73H1270.23V1163.33Z" fill="#3F3D56"/>
<path d="M1304.46 1097.97H1207.69V1101.57H1304.46V1097.97Z" fill="#3F3D56"/>
<path d="M1304.46 1109.36H1207.69V1112.96H1304.46V1109.36Z" fill="#3F3D56"/>
<path d="M1304.46 1120.76H1207.69V1124.35H1304.46V1120.76Z" fill="#3F3D56"/>
<path d="M1304.46 1132.15H1207.69V1135.75H1304.46V1132.15Z" fill="#3F3D56"/>
<path d="M1304.46 1143.54H1207.69V1147.14H1304.46V1143.54Z" fill="#3F3D56"/>
<path d="M1261.73 1195.2H1190.15V1198.97H1261.73V1195.2Z" fill="#F2F2F2"/>
<path d="M1289.99 1204.62H1190.15V1208.39H1289.99V1204.62Z" fill="#F2F2F2"/>
<path d="M1256.08 1082.1C1260.24 1082.1 1263.61 1078.72 1263.61 1074.56C1263.61 1070.39 1260.24 1067.01 1256.08 1067.01C1251.92 1067.01 1248.54 1070.39 1248.54 1074.56C1248.54 1078.72 1251.92 1082.1 1256.08 1082.1Z" fill="#3F3D56"/>
</g>
<defs>
<clipPath id="clip0">
<rect width="1130" height="523" fill="white" transform="translate(461 784)"/>
</clipPath>
</defs>
</svg>
