<svg width="636" height="635" viewBox="0 0 636 635" fill="none" xmlns="http://www.w3.org/2000/svg">
<g filter="url(#filter0_ii)">
<rect x="0.328125" width="635" height="635" fill="#CD8DFF"/>
<path d="M251.802 386.13C97.9239 396.483 2 489.66 2 489.66V635H632V475.325C593.687 592.647 342.677 380.016 251.802 386.13Z" fill="url(#paint0_linear)" fill-opacity="0.5"/>
<path d="M383.216 410.117C538.315 419.472 635 503.668 635 503.668V635H0V490.715C38.6168 596.729 291.619 404.592 383.216 410.117Z" fill="url(#paint1_linear)" fill-opacity="0.5"/>
<path d="M203.789 527.288C198.533 527.288 194.753 529.124 192.017 531.176C190.397 528.224 187.373 527.288 184.169 527.288C178.913 527.288 175.457 529.268 173.153 531.104V527.648H166.997V548.852H173.153V536.36C174.917 534.452 178.373 532.616 181.937 532.616C186.329 532.616 187.085 534.956 187.085 539.456V548.852H193.241L193.313 536.972C193.313 536.576 193.313 536.216 193.277 535.856C195.149 534.164 198.317 532.616 201.557 532.616C205.949 532.616 206.705 534.956 206.705 539.456V548.852H212.861L212.933 536.972C212.861 529.304 208.541 527.288 203.789 527.288ZM229.878 527.288C225.45 527.288 221.202 528.08 216.882 529.484L219.078 533.984C223.434 532.688 226.818 532.436 229.59 532.436C232.47 532.436 237.654 532.76 237.654 536.792C234.882 535.856 231.534 535.28 227.898 535.28C221.166 535.28 215.118 537.008 215.118 542.516C215.118 547.304 218.826 549.212 224.766 549.212C229.77 549.212 233.91 548.06 237.654 546.224V548.852H243.846V538.16C243.774 530.132 238.734 527.288 229.878 527.288ZM237.654 542.264C234.486 543.632 229.878 544.676 226.53 544.676C223.326 544.676 221.274 544.496 221.274 542.264C221.274 540.104 224.046 539.312 228.654 539.312C232.578 539.312 235.494 539.924 237.654 540.608V542.264ZM266.606 532.796V527.648H256.562V521.492L250.37 523.256V527.648H244.79V532.796H250.37V542.48C250.37 547.16 253.898 549.212 259.37 549.212C262.214 549.212 264.554 549.032 266.606 548.672V543.704C264.122 544.064 263.042 544.064 261.098 544.064C257.354 544.064 256.562 543.02 256.562 538.916V532.796H266.606ZM287.63 527.288C282.482 527.288 278.306 528.98 275.282 531.356V520.052H269.126V548.852H275.282V536.972C277.19 534.74 281.654 532.616 285.794 532.616C290.87 532.616 292.382 534.956 292.382 539.456V548.852H298.574L298.646 537.116C298.574 529.304 293.282 527.288 287.63 527.288ZM315.121 544.208C311.017 544.208 307.777 543.092 307.093 539.708H329.989C329.989 530.06 323.545 527.288 315.481 527.288C306.877 527.288 300.793 530.456 300.793 538.268C300.793 546.044 307.057 549.212 315.121 549.212C322.969 549.212 328.225 546.656 329.629 541.256H323.509C321.961 543.416 319.369 544.208 315.121 544.208ZM315.445 531.968C319.333 531.968 322.357 532.796 323.401 535.784H307.309C308.281 532.796 311.233 531.968 315.445 531.968ZM369.129 527.288C363.873 527.288 360.093 529.124 357.357 531.176C355.737 528.224 352.713 527.288 349.509 527.288C344.253 527.288 340.797 529.268 338.493 531.104V527.648H332.337V548.852H338.493V536.36C340.257 534.452 343.713 532.616 347.277 532.616C351.669 532.616 352.425 534.956 352.425 539.456V548.852H358.581L358.653 536.972C358.653 536.576 358.653 536.216 358.617 535.856C360.489 534.164 363.657 532.616 366.897 532.616C371.289 532.616 372.045 534.956 372.045 539.456V548.852H378.201L378.273 536.972C378.201 529.304 373.881 527.288 369.129 527.288ZM395.217 527.288C390.789 527.288 386.541 528.08 382.221 529.484L384.417 533.984C388.773 532.688 392.157 532.436 394.929 532.436C397.809 532.436 402.993 532.76 402.993 536.792C400.221 535.856 396.873 535.28 393.237 535.28C386.505 535.28 380.457 537.008 380.457 542.516C380.457 547.304 384.165 549.212 390.105 549.212C395.109 549.212 399.249 548.06 402.993 546.224V548.852H409.185V538.16C409.113 530.132 404.073 527.288 395.217 527.288ZM402.993 542.264C399.825 543.632 395.217 544.676 391.869 544.676C388.665 544.676 386.613 544.496 386.613 542.264C386.613 540.104 389.385 539.312 393.993 539.312C397.917 539.312 400.833 539.924 402.993 540.608V542.264ZM431.945 532.796V527.648H421.901V521.492L415.709 523.256V527.648H410.129V532.796H415.709V542.48C415.709 547.16 419.237 549.212 424.709 549.212C427.553 549.212 429.893 549.032 431.945 548.672V543.704C429.461 544.064 428.381 544.064 426.437 544.064C422.693 544.064 421.901 543.02 421.901 538.916V532.796H431.945ZM434.466 520.052V525.416H440.622V520.052H434.466ZM434.466 527.648V548.852H440.622V527.648H434.466ZM442.965 538.268C442.965 546.044 448.869 549.212 457.653 549.212C465.573 549.212 471.153 546.62 472.161 540.392H465.861C465.033 543.128 462.117 544.064 457.653 544.064C452.361 544.064 449.121 542.66 449.121 538.268C449.121 533.84 452.361 532.436 457.653 532.436C462.117 532.436 465.033 533.372 465.861 536.108H472.161C471.153 529.88 465.573 527.288 457.653 527.288C448.869 527.288 442.965 530.456 442.965 538.268ZM473.551 541.4C473.551 548.168 481.111 549.212 489.283 549.212C497.455 549.212 502.855 548.168 502.855 542.192C502.855 536.54 497.203 536.324 488.923 535.712C481.615 535.172 480.499 534.956 480.499 533.624C480.499 532.4 482.155 531.968 487.987 531.968C493.711 531.968 495.943 532.4 495.943 534.164H502.135C502.135 528.332 496.339 527.288 488.347 527.288C480.787 527.288 474.307 528.332 474.307 533.876C474.307 538.988 478.879 539.708 488.203 540.248C495.655 540.716 496.663 540.824 496.663 542.444C496.663 544.1 495.583 544.532 488.923 544.532C482.047 544.532 479.707 543.668 479.707 541.4H473.551Z" fill="#FFEFEF"/>
<g clip-path="url(#clip0)">
<path d="M469.284 400.073C469.284 413.398 397.512 424.201 308.976 424.201C220.44 424.201 148.668 413.398 148.668 400.073C148.668 390.64 184.645 382.468 237.076 378.504C258.696 376.864 283.125 375.945 308.976 375.945C319.603 375.945 329.987 376.101 340.029 376.397C413.703 378.576 469.284 388.347 469.284 400.073Z" fill="#3F3D56"/>
<path opacity="0.1" d="M288.291 405.002C322.278 405.002 349.829 401.634 349.829 397.479C349.829 393.323 322.278 389.955 288.291 389.955C254.305 389.955 226.754 393.323 226.754 397.479C226.754 401.634 254.305 405.002 288.291 405.002Z" fill="black"/>
<path d="M288.033 402.927C320.162 402.927 346.209 375.05 346.209 340.662C346.209 306.274 320.162 278.396 288.033 278.396C255.903 278.396 229.856 306.274 229.856 340.662C229.856 375.05 255.903 402.927 288.033 402.927Z" fill="#3F3D56"/>
<path d="M306.39 377.502H270.192V410.71H306.39V377.502Z" fill="#6C63FF"/>
<path d="M353.707 385.545L351.639 396.96L365.084 399.036L373.875 393.847L373.358 385.545H353.707Z" fill="#575A89"/>
<path d="M285.964 171.247C285.964 171.247 284.93 183.181 282.344 183.7C279.759 184.219 288.033 204.974 288.033 204.974H300.443L310.269 202.38L305.615 190.964C305.615 190.964 299.409 182.662 304.063 175.917C308.717 169.171 285.964 171.247 285.964 171.247Z" fill="#A0616A"/>
<path opacity="0.1" d="M285.964 171.247C285.964 171.247 284.93 183.181 282.344 183.7C279.759 184.219 288.033 204.974 288.033 204.974H300.443L310.269 202.38L305.615 190.964C305.615 190.964 299.409 182.662 304.063 175.917C308.717 169.171 285.964 171.247 285.964 171.247Z" fill="black"/>
<path d="M260.108 262.57C260.108 262.57 246.663 288.514 257.522 293.703C268.382 298.892 270.967 298.373 270.967 299.929C270.967 301.486 268.899 300.967 269.933 303.562C270.967 306.156 267.865 316.534 270.967 322.76C274.07 328.987 273.036 333.657 273.036 333.657C273.036 333.657 273.036 334.175 274.07 336.251C275.104 338.326 275.622 339.883 275.104 340.921C274.587 341.959 271.485 348.704 274.587 350.261C277.69 351.817 293.721 352.855 295.272 350.261C296.824 347.666 293.721 346.11 295.272 344.553C296.824 342.996 297.858 342.478 296.824 341.44C295.789 340.402 294.755 327.43 294.755 327.43C294.755 327.43 297.341 312.383 296.306 310.307C295.272 308.232 293.721 306.156 294.755 304.599C295.789 303.043 296.824 303.562 297.341 301.486C297.858 299.411 298.892 294.741 298.892 294.741L304.58 294.222L318.025 296.816C318.025 296.816 333.022 313.42 349.57 318.609C349.57 318.609 354.224 323.279 355.775 323.279C357.327 323.279 357.327 323.279 356.81 324.317C356.292 325.355 354.741 325.355 355.775 326.392C356.81 327.43 358.361 325.873 357.327 327.43C356.292 328.987 355.258 328.987 356.292 330.024C357.327 331.062 355.775 336.77 355.775 337.289C355.775 337.808 351.121 386.582 352.673 387.62C354.224 388.658 375.943 391.771 377.494 387.62C379.046 383.469 376.46 378.28 376.46 378.28C376.46 378.28 384.217 316.015 382.149 311.864C380.08 307.713 372.84 289.033 334.056 277.099C334.056 277.099 323.197 275.023 323.197 273.467C323.197 271.91 322.162 262.051 320.094 261.532C318.025 261.014 306.132 260.495 306.132 260.495L291.135 265.165L270.45 261.532L260.108 262.57Z" fill="#2F2E41"/>
<path d="M278.207 349.742L275.622 359.082C275.622 359.082 273.553 374.129 276.139 377.761C278.17 380.614 281.796 384.107 288.521 384.721C290.406 384.894 292.293 384.417 293.871 383.368C295.449 382.319 296.622 380.761 297.198 378.952C297.275 378.735 297.323 378.509 297.341 378.28C297.341 377.242 295.789 364.789 295.789 364.789L293.204 351.817L292.687 348.185L278.207 349.742Z" fill="#2F2E41"/>
<path d="M353.707 394.365C353.707 394.365 351.121 391.771 350.604 394.365C350.087 396.96 348.019 407.856 351.639 408.375C355.258 408.894 389.906 414.083 393.525 412.007C397.145 409.932 403.868 406.818 399.731 405.262C395.594 403.705 383.7 399.035 383.7 399.035C383.7 399.035 376.978 390.214 375.943 389.695C374.909 389.177 369.221 390.214 366.635 392.29C364.049 394.365 353.707 394.365 353.707 394.365Z" fill="#2F2E41"/>
<path d="M298.375 182.143C307.229 182.143 314.406 174.942 314.406 166.058C314.406 157.174 307.229 149.973 298.375 149.973C289.521 149.973 282.344 157.174 282.344 166.058C282.344 174.942 289.521 182.143 298.375 182.143Z" fill="#A0616A"/>
<path d="M296.823 202.38L290.618 195.635L283.739 182.144C283.739 182.144 278.724 180.587 277.69 183.181C276.656 185.776 258.039 194.078 258.039 194.078C258.039 194.078 262.693 237.664 260.625 241.815C258.556 245.966 254.937 262.57 258.039 264.127C261.142 265.683 275.621 264.127 280.276 266.202C284.93 268.278 298.375 268.278 301.995 265.683C305.614 263.089 306.649 261.013 310.269 262.57C313.35 263.895 320.554 218.589 322.629 205.088C322.803 203.954 322.658 202.794 322.21 201.738C321.761 200.683 321.027 199.774 320.091 199.116C315.451 195.85 307.094 190.222 305.614 190.965C303.546 192.002 296.823 202.38 296.823 202.38Z" fill="#575A89"/>
<path d="M319.06 200.305C320.274 200.609 321.367 201.279 322.19 202.225C323.014 203.171 323.53 204.347 323.668 205.595L327.851 243.371C327.851 243.371 317.509 265.683 312.337 250.636C307.166 235.588 319.06 200.305 319.06 200.305Z" fill="#575A89"/>
<path d="M318.026 247.003L329.402 243.89C329.402 243.89 331.471 258.419 333.539 258.419C335.608 258.419 326.3 266.721 321.645 265.683C316.991 264.645 310.269 261.013 309.752 258.419C309.235 255.824 314.406 244.928 314.406 244.928L318.026 247.003Z" fill="#575A89"/>
<path d="M286.274 172.998C287.364 170.586 287.174 167.773 288.076 165.284C288.558 163.951 289.341 162.748 290.364 161.77C291.386 160.791 292.62 160.062 293.97 159.641C295.319 159.22 296.747 159.118 298.143 159.342C299.538 159.567 300.863 160.112 302.014 160.935C303.173 161.765 304.335 162.93 305.75 162.772C307.274 162.601 308.633 160.895 310.034 161.521C311.587 162.213 311.167 165.006 312.741 165.651C313.569 165.99 314.547 165.467 315.025 164.709C315.442 163.911 315.67 163.027 315.69 162.126C315.907 159.913 316.103 157.571 315.146 155.565C314.744 154.885 314.393 154.176 314.098 153.443C313.93 152.759 313.863 152.054 313.898 151.35C313.889 148.749 313.7 146.035 312.396 143.787C310.948 141.293 308.272 139.698 305.48 139.002C302.688 138.306 299.763 138.413 296.897 138.656C292.158 139.059 287.217 139.922 283.483 142.878C282.976 143.25 282.539 143.71 282.194 144.237C281.866 144.863 281.635 145.535 281.507 146.23C280.7 149.528 279.49 152.713 277.904 155.714C277.141 156.986 276.518 158.337 276.045 159.743C275.649 161.172 275.676 162.801 276.504 164.029C277.179 165.03 278.258 165.562 279.105 166.38C279.945 167.19 280.338 168.749 281.268 169.362C282.08 169.898 283.053 169.52 283.881 170.087C284.944 170.816 285.021 172.414 286.274 172.998Z" fill="#2F2E41"/>
<path d="M299.41 210.163L300.961 207.05C300.961 207.05 323.714 213.795 328.368 220.022C328.368 220.022 339.745 212.757 345.951 213.795L352.156 214.833L333.023 231.956L308.718 229.88L299.41 210.163Z" fill="#F2F2F2"/>
<path d="M298.375 207.05L277.173 236.626L307.683 251.673C307.683 251.673 310.536 253.23 312.729 251.673L333.022 242.333L352.156 214.833L333.022 224.692C333.022 224.692 330.954 220.541 326.817 222.616L298.375 207.05Z" fill="#6C63FF"/>
<path d="M330.954 259.457L335.091 248.56C335.091 248.56 344.399 236.626 339.228 230.918C334.056 225.211 328.368 247.522 328.368 247.522L330.954 259.457Z" fill="#A0616A"/>
<path d="M283.222 257.718L292.249 250.375C292.249 250.375 306.268 244.737 304.649 237.197C303.03 229.656 286.953 246.093 286.953 246.093L283.222 257.718Z" fill="#A0616A"/>
<path opacity="0.1" d="M260.884 205.234H260.367C260.367 205.234 252.351 195.635 250.8 208.607C249.248 221.579 244.077 264.646 257.522 266.202C270.968 267.759 280.534 259.716 280.534 259.716C280.534 259.716 290.36 244.669 286.74 244.669C284.988 244.669 280.225 243.879 275.88 244.15C271.245 244.438 267.081 245.748 267.348 244.409C267.865 241.815 275.363 208.866 260.884 205.234Z" fill="black"/>
<path d="M260.108 195.116L258.04 194.078C258.04 194.078 249.766 195.635 248.214 208.607C246.663 221.579 241.492 264.645 254.937 266.202C268.382 267.759 286.481 264.127 286.481 264.127C286.481 264.127 290.101 244.409 286.481 244.409C282.862 244.409 264.245 247.004 264.762 244.409C265.279 241.815 274.588 198.748 260.108 195.116Z" fill="#575A89"/>
<path d="M323.456 253.49L329.158 244.72L332.764 259.197L323.456 263.348V253.49Z" fill="#575A89"/>
<path d="M206.313 128.44C214.025 128.44 220.276 122.167 220.276 114.43C220.276 106.692 214.025 100.42 206.313 100.42C198.602 100.42 192.351 106.692 192.351 114.43C192.351 122.167 198.602 128.44 206.313 128.44Z" fill="#F2F2F2"/>
<path d="M222.861 218.725H189.766V251.933H222.861V218.725Z" fill="#F2F2F2"/>
<path d="M341.037 70.2664L349.414 84.8246L357.791 99.3828H341.037H324.284L332.661 84.8246L341.037 70.2664Z" fill="#F2F2F2"/>
<path d="M486.988 157.557C486.788 163.768 485.281 168.747 482.466 172.492C479.651 176.239 476.307 178.112 472.433 178.112C469.278 178.112 466.513 176.279 464.137 172.613C461.761 168.946 460.573 163.307 460.573 155.694C460.573 154.011 460.613 152.409 460.693 150.886C460.773 149.364 460.872 147.921 460.993 146.559L463.089 126.785H449.252C446.857 151.788 444.89 166.663 443.353 171.411C441.815 176.159 439.209 178.533 435.536 178.533C433.878 178.492 432.296 177.827 431.103 176.67C430.412 176.055 429.866 175.294 429.503 174.442C429.14 173.59 428.971 172.667 429.007 171.741C429.007 169.899 430.454 167.325 433.349 164.018C436.244 160.713 437.852 157.698 438.171 154.973L441.765 126.785H435.955C434.317 126.795 432.705 127.197 431.253 127.957C429.917 128.573 428.754 129.513 427.869 130.692L425.293 134.538H423.197C425.153 128.448 427.559 123.871 430.415 120.805C433.269 117.74 436.553 116.207 440.268 116.207H486.03V126.785H470.576C470.097 131.593 469.728 136.401 469.468 141.21C469.208 146.018 469.078 150.846 469.079 155.694C469.079 158.98 469.838 161.645 471.355 163.688C472.872 165.731 474.769 166.753 477.045 166.753C478.443 166.753 479.91 166.182 481.448 165.04C482.178 164.526 482.789 163.86 483.239 163.087C483.688 162.314 483.966 161.453 484.053 160.562C484.173 159.681 484.263 158.99 484.323 158.489C484.383 157.988 484.413 157.678 484.413 157.557L486.988 157.557Z" fill="#6C63FF"/>
<path opacity="0.1" d="M486.988 157.557C486.788 163.768 485.281 168.747 482.466 172.492C479.651 176.239 476.307 178.112 472.433 178.112C469.278 178.112 466.513 176.279 464.137 172.613C461.761 168.946 460.573 163.307 460.573 155.694C460.573 154.011 460.613 152.409 460.693 150.886C460.773 149.364 460.872 147.921 460.993 146.559L463.089 126.785H449.252C446.857 151.788 444.89 166.663 443.353 171.411C441.815 176.159 439.209 178.533 435.536 178.533C433.878 178.492 432.296 177.827 431.103 176.67C430.412 176.055 429.866 175.294 429.503 174.442C429.14 173.59 428.971 172.667 429.007 171.741C429.007 169.899 430.454 167.325 433.349 164.018C436.244 160.713 437.852 157.698 438.171 154.973L441.765 126.785H435.955C434.317 126.795 432.705 127.197 431.253 127.957C429.917 128.573 428.754 129.513 427.869 130.692L425.293 134.538H423.197C425.153 128.448 427.559 123.871 430.415 120.805C433.269 117.74 436.553 116.207 440.268 116.207H486.03V126.785H470.576C470.097 131.593 469.728 136.401 469.468 141.21C469.208 146.018 469.078 150.846 469.079 155.694C469.079 158.98 469.838 161.645 471.355 163.688C472.872 165.731 474.769 166.753 477.045 166.753C478.443 166.753 479.91 166.182 481.448 165.04C482.178 164.526 482.789 163.86 483.239 163.087C483.688 162.314 483.966 161.453 484.053 160.562C484.173 159.681 484.263 158.99 484.323 158.489C484.383 157.988 484.413 157.678 484.413 157.557L486.988 157.557Z" fill="black"/>
<path d="M486.988 155.679C486.788 161.89 485.281 166.869 482.466 170.614C479.651 174.36 476.307 176.234 472.433 176.234C469.278 176.234 466.513 174.401 464.137 170.735C461.761 167.068 460.573 161.429 460.573 153.816C460.573 152.133 460.613 150.531 460.693 149.008C460.773 147.486 460.872 146.043 460.993 144.681L463.089 124.907H449.252C446.857 149.909 444.89 164.785 443.353 169.533C441.815 174.281 439.209 176.655 435.536 176.655C433.878 176.614 432.296 175.949 431.103 174.792C430.412 174.177 429.866 173.416 429.503 172.564C429.14 171.712 428.971 170.789 429.007 169.863C429.007 168.021 430.454 165.446 433.349 162.14C436.244 158.835 437.852 155.819 438.171 153.095L441.765 124.907H435.955C434.317 124.917 432.705 125.319 431.253 126.079C429.917 126.695 428.754 127.635 427.869 128.814L425.293 132.66H423.197C425.153 126.57 427.559 121.993 430.415 118.927C433.269 115.862 436.553 114.329 440.268 114.329H486.03V124.907H470.576C470.097 129.715 469.728 134.523 469.468 139.332C469.208 144.14 469.078 148.968 469.079 153.816C469.079 157.102 469.838 159.766 471.355 161.81C472.872 163.853 474.769 164.875 477.045 164.875C478.443 164.875 479.91 164.304 481.448 163.162C482.178 162.648 482.789 161.982 483.239 161.209C483.688 160.436 483.966 159.575 484.053 158.684C484.173 157.803 484.263 157.112 484.323 156.611C484.383 156.11 484.413 155.8 484.413 155.679H486.988Z" fill="#6C63FF"/>
</g>
</g>
<defs>
<filter id="filter0_ii" x="-4" y="-4" width="643.328" height="643" filterUnits="userSpaceOnUse" color-interpolation-filters="sRGB">
<feFlood flood-opacity="0" result="BackgroundImageFix"/>
<feBlend mode="normal" in="SourceGraphic" in2="BackgroundImageFix" result="shape"/>
<feColorMatrix in="SourceAlpha" type="matrix" values="0 0 0 0 0 0 0 0 0 0 0 0 0 0 0 0 0 0 127 0" result="hardAlpha"/>
<feOffset dx="4" dy="-4"/>
<feGaussianBlur stdDeviation="5"/>
<feComposite in2="hardAlpha" operator="arithmetic" k2="-1" k3="1"/>
<feColorMatrix type="matrix" values="0 0 0 0 0 0 0 0 0 0 0 0 0 0 0 0 0 0 0.2 0"/>
<feBlend mode="normal" in2="shape" result="effect1_innerShadow"/>
<feColorMatrix in="SourceAlpha" type="matrix" values="0 0 0 0 0 0 0 0 0 0 0 0 0 0 0 0 0 0 127 0" result="hardAlpha"/>
<feOffset dx="-4" dy="4"/>
<feGaussianBlur stdDeviation="2"/>
<feComposite in2="hardAlpha" operator="arithmetic" k2="-1" k3="1"/>
<feColorMatrix type="matrix" values="0 0 0 0 1 0 0 0 0 1 0 0 0 0 1 0 0 0 0.25 0"/>
<feBlend mode="normal" in2="effect1_innerShadow" result="effect2_innerShadow"/>
</filter>
<linearGradient id="paint0_linear" x1="360" y1="635" x2="338.385" y2="446.757" gradientUnits="userSpaceOnUse">
<stop stop-color="#8F00FF"/>
<stop offset="1" stop-color="#7B5FCD" stop-opacity="0.33"/>
</linearGradient>
<linearGradient id="paint1_linear" x1="452.563" y1="522.991" x2="448.563" y2="623.191" gradientUnits="userSpaceOnUse">
<stop stop-color="#975BE4" stop-opacity="0.38"/>
<stop offset="1" stop-color="#8D00FD"/>
</linearGradient>
<clipPath id="clip0">
<rect width="338.32" height="353.934" fill="white" transform="translate(148.668 70.2664)"/>
</clipPath>
</defs>
</svg>
