<svg width="636" height="635" viewBox="0 0 636 635" fill="none" xmlns="http://www.w3.org/2000/svg">
<g filter="url(#filter0_ii)">
<rect x="0.237793" width="635" height="635" fill="#F18CF3"/>
<path d="M383.216 427.108C538.315 435.715 635 513.175 635 513.175V634H0V501.258C38.6168 598.791 291.619 422.025 383.216 427.108Z" fill="url(#paint0_linear)" fill-opacity="0.5"/>
<path d="M251.784 427.108C96.6852 435.715 0 513.175 0 513.175V634H635V501.258C596.383 598.791 343.381 422.025 251.784 427.108Z" fill="url(#paint1_linear)" fill-opacity="0.5"/>
<path d="M245.761 542.495C245.761 536.879 241.837 533.243 236.113 533.243H216.313V558.443H222.793V551.711H233.233L237.301 558.443H244.933L240.289 550.955C243.673 549.623 245.761 546.599 245.761 542.495ZM222.793 538.679H234.313C236.257 538.679 239.281 538.679 239.281 542.495C239.281 546.275 236.257 546.275 234.313 546.275H222.793V538.679ZM261.405 536.879C256.977 536.879 252.729 537.671 248.409 539.075L250.605 543.575C254.961 542.279 258.345 542.027 261.117 542.027C263.997 542.027 269.181 542.351 269.181 546.383C266.409 545.447 263.061 544.871 259.425 544.871C252.693 544.871 246.645 546.599 246.645 552.107C246.645 556.895 250.353 558.803 256.293 558.803C261.297 558.803 265.437 557.651 269.181 555.815V558.443H275.373V547.751C275.301 539.723 270.261 536.879 261.405 536.879ZM269.181 551.855C266.013 553.223 261.405 554.267 258.057 554.267C254.853 554.267 252.801 554.087 252.801 551.855C252.801 549.695 255.573 548.903 260.181 548.903C264.105 548.903 267.021 549.515 269.181 550.199V551.855ZM296.622 536.879C291.474 536.879 287.298 538.571 284.274 540.947V537.239H278.118V558.443H284.274V546.563C286.182 544.331 290.646 542.207 294.786 542.207C299.862 542.207 301.374 544.547 301.374 549.047V558.443H307.566L307.638 546.707C307.566 538.895 302.274 536.879 296.622 536.879ZM333.005 529.643V540.551C330.701 538.139 326.993 536.879 322.421 536.879C315.617 536.879 309.785 539.759 309.785 547.859C309.785 555.959 315.617 558.803 322.421 558.803C326.993 558.803 330.701 557.543 333.005 555.131V558.443H339.161V529.643H333.005ZM324.473 553.655C318.965 553.655 315.977 552.035 315.977 547.859C315.977 543.647 318.965 542.027 324.473 542.027C329.981 542.027 333.005 543.647 333.005 547.859C333.005 552.035 329.981 553.655 324.473 553.655ZM356.184 558.803C364.932 558.803 370.872 555.635 370.872 547.859C370.872 540.047 364.932 536.879 356.184 536.879C347.4 536.879 341.496 540.047 341.496 547.859C341.496 555.635 347.4 558.803 356.184 558.803ZM356.184 553.655C350.46 553.655 347.652 552.251 347.652 547.859C347.652 543.431 350.46 542.027 356.184 542.027C361.872 542.027 364.68 543.431 364.68 547.859C364.68 552.251 361.872 553.655 356.184 553.655ZM410.007 536.879C404.751 536.879 400.971 538.715 398.235 540.767C396.615 537.815 393.591 536.879 390.387 536.879C385.131 536.879 381.675 538.859 379.371 540.695V537.239H373.215V558.443H379.371V545.951C381.135 544.043 384.591 542.207 388.155 542.207C392.547 542.207 393.303 544.547 393.303 549.047V558.443H399.459L399.531 546.563C399.531 546.167 399.531 545.807 399.495 545.447C401.367 543.755 404.535 542.207 407.775 542.207C412.167 542.207 412.923 544.547 412.923 549.047V558.443H419.079L419.151 546.563C419.079 538.895 414.759 536.879 410.007 536.879Z" fill="#FFEFEF"/>
<g clip-path="url(#clip0)">
<path d="M455.894 453.907V416.76C455.894 416.76 470.433 443.095 455.894 453.907Z" fill="#F1F1F1"/>
<path d="M456.791 453.9L429.308 428.779C429.308 428.779 458.625 435.925 456.791 453.9Z" fill="#F1F1F1"/>
<path d="M165.602 120H99.8672L67 176.681L99.8672 233.363H165.602L198.469 176.681L165.602 120Z" fill="#E6E6E6"/>
<path d="M103.556 227.001H161.912L191.091 176.682L161.912 126.362H103.556L74.3779 176.682L103.556 227.001Z" fill="white"/>
<path d="M102.851 164.351C104.338 164.351 105.544 163.151 105.544 161.671C105.544 160.19 104.338 158.99 102.851 158.99C101.365 158.99 100.159 160.19 100.159 161.671C100.159 163.151 101.365 164.351 102.851 164.351Z" fill="#E2E2E2"/>
<path d="M102.851 179.362C104.338 179.362 105.544 178.162 105.544 176.682C105.544 175.201 104.338 174.001 102.851 174.001C101.365 174.001 100.159 175.201 100.159 176.682C100.159 178.162 101.365 179.362 102.851 179.362Z" fill="#E2E2E2"/>
<path d="M102.851 194.373C104.338 194.373 105.544 193.173 105.544 191.692C105.544 190.212 104.338 189.012 102.851 189.012C101.365 189.012 100.159 190.212 100.159 191.692C100.159 193.173 101.365 194.373 102.851 194.373Z" fill="#E2E2E2"/>
<path d="M165.31 159.526H114.159V163.815H165.31V159.526Z" fill="#E2E2E2"/>
<path d="M165.31 174.537H114.159V178.826H165.31V174.537Z" fill="#E2E2E2"/>
<path d="M165.31 189.548H114.159V193.837H165.31V189.548Z" fill="#E2E2E2"/>
<path d="M491.132 120H425.398L392.53 176.681L425.398 233.363H491.132L524 176.681L491.132 120Z" fill="#E6E6E6"/>
<path d="M429.086 227.001H487.443L516.621 176.682L487.443 126.362H429.086L399.908 176.682L429.086 227.001Z" fill="white"/>
<path d="M428.383 164.351C429.869 164.351 431.075 163.151 431.075 161.671C431.075 160.19 429.869 158.99 428.383 158.99C426.896 158.99 425.69 160.19 425.69 161.671C425.69 163.151 426.896 164.351 428.383 164.351Z" fill="#E2E2E2"/>
<path d="M428.383 179.362C429.869 179.362 431.075 178.162 431.075 176.682C431.075 175.201 429.869 174.001 428.383 174.001C426.896 174.001 425.69 175.201 425.69 176.682C425.69 178.162 426.896 179.362 428.383 179.362Z" fill="#E2E2E2"/>
<path d="M428.383 194.373C429.869 194.373 431.075 193.173 431.075 191.692C431.075 190.212 429.869 189.012 428.383 189.012C426.896 189.012 425.69 190.212 425.69 191.692C425.69 193.173 426.896 194.373 428.383 194.373Z" fill="#E2E2E2"/>
<path d="M490.84 159.526H439.689V163.815H490.84V159.526Z" fill="#E2E2E2"/>
<path d="M490.84 174.537H439.689V178.826H490.84V174.537Z" fill="#E2E2E2"/>
<path d="M490.84 189.548H439.689V193.837H490.84V189.548Z" fill="#E2E2E2"/>
<path d="M328.048 120.551H262.951L230.403 176.681L262.951 232.813H328.048L360.597 176.681L328.048 120.551Z" fill="#E6E6E6"/>
<path d="M266.605 226.512H324.395L353.29 176.682L324.395 126.851H266.605L237.71 176.682L266.605 226.512Z" fill="white"/>
<path d="M265.907 164.471C267.38 164.471 268.573 163.282 268.573 161.816C268.573 160.35 267.38 159.162 265.907 159.162C264.435 159.162 263.241 160.35 263.241 161.816C263.241 163.282 264.435 164.471 265.907 164.471Z" fill="#F18CF3"/>
<path d="M265.907 179.336C267.38 179.336 268.573 178.148 268.573 176.682C268.573 175.216 267.38 174.027 265.907 174.027C264.435 174.027 263.241 175.216 263.241 176.682C263.241 178.148 264.435 179.336 265.907 179.336Z" fill="#F18CF3"/>
<path d="M265.907 194.201C267.38 194.201 268.573 193.013 268.573 191.547C268.573 190.081 267.38 188.892 265.907 188.892C264.435 188.892 263.241 190.081 263.241 191.547C263.241 193.013 264.435 194.201 265.907 194.201Z" fill="#F18CF3"/>
<path d="M327.759 159.693H277.104V163.94H327.759V159.693Z" fill="#F18CF3"/>
<path d="M327.759 174.558H277.104V178.805H327.759V174.558Z" fill="#F18CF3"/>
<path d="M327.759 189.423H277.104V193.67H327.759V189.423Z" fill="#F18CF3"/>
<path d="M350.997 448.506L344.674 448.506L341.666 424.224L350.998 424.224L350.997 448.506Z" fill="#9F616A"/>
<path d="M352.609 454.609L332.222 454.608V454.351C332.222 452.256 333.058 450.246 334.546 448.765C336.034 447.283 338.052 446.451 340.157 446.451H340.158L352.609 446.451L352.609 454.609Z" fill="#2F2E41"/>
<path d="M409.791 448.506L403.468 448.506L400.46 424.224L409.792 424.224L409.791 448.506Z" fill="#9F616A"/>
<path d="M411.403 454.609L391.016 454.608V454.351C391.016 452.256 391.852 450.246 393.34 448.765C394.828 447.283 396.846 446.451 398.951 446.451H398.951L411.403 446.451L411.403 454.609Z" fill="#2F2E41"/>
<path d="M348.477 325.279C348.477 325.279 343.17 339.621 343.928 345.661C344.686 351.7 338.621 393.974 339.379 397.748C340.137 401.522 338.621 420.395 339.379 423.414C340.137 426.434 337.251 430.04 338.767 433.06C340.284 436.08 342.412 442.286 342.412 442.286L352.268 441.532L353.784 433.228C353.784 433.228 358.333 432.473 357.575 427.944C356.817 423.414 361.366 393.219 361.366 393.219L374.255 350.945L392.451 389.444C392.451 389.444 393.209 416.62 395.483 419.64C397.758 422.659 393.209 430.963 395.483 433.983C397.758 437.002 400.032 442.286 400.032 442.286H411.405V436.247C411.405 436.247 418.229 432.473 411.405 421.15L406.794 353.148L402.245 322.198L348.477 325.279Z" fill="#2F2E41"/>
<path d="M376.739 230.358C384.56 230.358 390.9 224.046 390.9 216.259C390.9 208.472 384.56 202.159 376.739 202.159C368.919 202.159 362.579 208.472 362.579 216.259C362.579 224.046 368.919 230.358 376.739 230.358Z" fill="#A0616A"/>
<path d="M364.689 215.287C365.688 217.829 366.687 220.37 367.687 222.912C368.915 226.037 370.322 229.381 373.201 231.125C376.756 233.278 381.504 232.228 384.943 229.895C388.036 227.797 390.411 224.807 391.747 221.327C393.084 217.846 393.319 214.041 392.42 210.424C391.522 206.807 389.533 203.55 386.721 201.09C383.909 198.631 380.409 197.088 376.69 196.667L376.548 199.219L373.402 196.594C373.17 196.992 372.85 197.331 372.466 197.588C372.083 197.845 371.646 198.011 371.188 198.076C370.731 198.14 370.265 198.101 369.825 197.96C369.385 197.819 368.983 197.581 368.649 197.263C369.475 198.969 368.521 201.049 367.144 202.355C365.452 203.96 360.613 205.889 360.814 208.758C360.948 210.672 363.909 213.302 364.689 215.287Z" fill="#2F2E41"/>
<path d="M415.72 346.135C416.208 345.41 416.53 344.588 416.664 343.725C416.798 342.863 416.741 341.981 416.496 341.143C416.251 340.305 415.824 339.531 415.246 338.875C414.668 338.219 413.953 337.697 413.15 337.346L413.433 323.706L405.15 321.513L405.022 340.781C404.52 342.162 404.543 343.679 405.089 345.045C405.634 346.41 406.664 347.529 407.982 348.189C409.301 348.849 410.817 349.004 412.243 348.626C413.669 348.247 414.906 347.361 415.72 346.135V346.135Z" fill="#9F616A"/>
<path d="M387.259 239.073C387.259 239.073 376.286 233.61 365.922 237.252C355.558 240.894 350.071 245.143 350.071 245.143L356.777 280.349L347.633 327.695C347.633 327.695 394.575 324.053 398.842 327.695C403.11 331.337 403.11 323.446 403.11 323.446L399.452 278.528L406.158 249.999L387.259 239.073Z" fill="#3F3D56"/>
<path d="M340.944 346.943C341.616 346.383 342.158 345.684 342.53 344.894C342.902 344.103 343.095 343.241 343.096 342.369C343.097 341.496 342.906 340.633 342.537 339.842C342.167 339.051 341.627 338.35 340.956 337.789L345.074 324.777L337.742 320.357L332.186 338.813C331.314 339.999 330.909 341.461 331.048 342.924C331.186 344.387 331.859 345.749 332.938 346.751C334.018 347.753 335.429 348.326 336.904 348.361C338.38 348.397 339.817 347.892 340.944 346.943V346.943Z" fill="#9F616A"/>
<path d="M354.339 245.143H350.071C350.071 245.143 343.365 249.392 343.365 255.462C343.365 261.532 333.611 332.55 333.611 332.55L343.975 334.371L353.119 284.597L359.825 271.243L354.339 245.143Z" fill="#3F3D56"/>
<path d="M394.575 249.999H406.158C406.158 249.999 409.816 253.641 411.645 262.139C413.473 270.637 415.302 304.022 415.302 304.022L414.083 334.372H404.939L403.719 294.917L397.623 269.423L394.575 249.999Z" fill="#3F3D56"/>
<path d="M482.084 455H285.589C285.453 455 285.322 454.946 285.225 454.85C285.128 454.753 285.074 454.623 285.074 454.487C285.074 454.35 285.128 454.22 285.225 454.123C285.322 454.027 285.453 453.973 285.589 453.973H482.084C482.221 453.973 482.352 454.027 482.449 454.123C482.546 454.22 482.6 454.35 482.6 454.487C482.6 454.623 482.546 454.753 482.449 454.85C482.352 454.946 482.221 455 482.084 455Z" fill="#CBCBCB"/>
</g>
</g>
<defs>
<filter id="filter0_ii" x="-4" y="-4" width="643.238" height="643" filterUnits="userSpaceOnUse" color-interpolation-filters="sRGB">
<feFlood flood-opacity="0" result="BackgroundImageFix"/>
<feBlend mode="normal" in="SourceGraphic" in2="BackgroundImageFix" result="shape"/>
<feColorMatrix in="SourceAlpha" type="matrix" values="0 0 0 0 0 0 0 0 0 0 0 0 0 0 0 0 0 0 127 0" result="hardAlpha"/>
<feOffset dx="4" dy="-4"/>
<feGaussianBlur stdDeviation="4"/>
<feComposite in2="hardAlpha" operator="arithmetic" k2="-1" k3="1"/>
<feColorMatrix type="matrix" values="0 0 0 0 0 0 0 0 0 0 0 0 0 0 0 0 0 0 0.25 0"/>
<feBlend mode="normal" in2="shape" result="effect1_innerShadow"/>
<feColorMatrix in="SourceAlpha" type="matrix" values="0 0 0 0 0 0 0 0 0 0 0 0 0 0 0 0 0 0 127 0" result="hardAlpha"/>
<feOffset dx="-4" dy="4"/>
<feGaussianBlur stdDeviation="3"/>
<feComposite in2="hardAlpha" operator="arithmetic" k2="-1" k3="1"/>
<feColorMatrix type="matrix" values="0 0 0 0 1 0 0 0 0 1 0 0 0 0 1 0 0 0 0.3 0"/>
<feBlend mode="normal" in2="effect1_innerShadow" result="effect2_innerShadow"/>
</filter>
<linearGradient id="paint0_linear" x1="384" y1="482.2" x2="379.186" y2="616.067" gradientUnits="userSpaceOnUse">
<stop offset="0.000119824" stop-color="#FB25FF"/>
<stop offset="1" stop-color="#611563"/>
</linearGradient>
<linearGradient id="paint1_linear" x1="251" y1="482.2" x2="255.814" y2="616.067" gradientUnits="userSpaceOnUse">
<stop offset="0.000119824" stop-color="#FB25FF"/>
<stop offset="1" stop-color="#611563"/>
</linearGradient>
<clipPath id="clip0">
<rect width="457" height="335" fill="white" transform="translate(67 120)"/>
</clipPath>
</defs>
</svg>
