<svg width="636" height="635" viewBox="0 0 636 635" fill="none" xmlns="http://www.w3.org/2000/svg">
<g filter="url(#filter0_ii)">
<rect x="0.282715" width="635" height="635" fill="#FAA3A3"/>
<path d="M251.784 384.131C96.6852 394.567 0 488.492 0 488.492V635H635V474.042C596.383 592.307 343.381 377.967 251.784 384.131Z" fill="url(#paint0_linear)" fill-opacity="0.5"/>
<path d="M383.216 384.131C538.315 394.567 635 488.492 635 488.492V635H0V474.042C38.6168 592.307 291.619 377.967 383.216 384.131Z" fill="url(#paint1_linear)" fill-opacity="0.5"/>
<path d="M222.271 540.767C222.271 548.039 228.427 549.803 238.759 549.803C248.083 549.803 254.455 548.435 254.455 541.703C254.455 535.331 248.299 534.791 238.363 534.251C231.019 533.819 229.507 533.459 229.507 531.515C229.507 529.643 231.019 529.031 237.391 529.031C244.123 529.031 246.895 529.715 246.895 532.487H253.375C253.375 526.259 247.615 523.883 238.111 523.883C228.679 523.883 223.027 525.647 223.027 531.191C223.027 536.843 227.383 538.571 238.363 539.075C246.535 539.471 247.975 539.831 247.975 541.919C247.975 543.899 245.923 544.655 239.119 544.655C230.911 544.655 228.751 543.431 228.751 540.767H222.271ZM273.718 527.879C269.146 527.879 265.474 529.139 263.17 531.515V528.239H256.978V558.443H263.17V546.167C265.474 548.579 269.146 549.803 273.718 549.803C280.558 549.803 286.354 546.959 286.354 538.859C286.354 530.759 280.558 527.879 273.718 527.879ZM271.666 544.655C266.158 544.655 263.17 543.035 263.17 538.859C263.17 534.647 266.158 533.027 271.666 533.027C277.174 533.027 280.198 534.647 280.198 538.859C280.198 543.035 277.174 544.655 271.666 544.655ZM303.017 549.803C311.765 549.803 317.705 546.635 317.705 538.859C317.705 531.047 311.765 527.879 303.017 527.879C294.233 527.879 288.329 531.047 288.329 538.859C288.329 546.635 294.233 549.803 303.017 549.803ZM303.017 544.655C297.293 544.655 294.485 543.251 294.485 538.859C294.485 534.431 297.293 533.027 303.017 533.027C308.705 533.027 311.513 534.431 311.513 538.859C311.513 543.251 308.705 544.655 303.017 544.655ZM337.076 527.879C333.116 527.879 329.372 528.995 326.204 531.839V528.239H320.048V549.443H326.204V536.735C329.948 533.819 333.908 533.027 337.364 533.027C339.164 533.027 340.784 533.243 342.8 533.747V528.599C341.36 528.239 339.596 527.879 337.076 527.879ZM366.395 533.387V528.239H356.351V522.083L350.159 523.847V528.239H344.579V533.387H350.159V543.071C350.159 547.751 353.687 549.803 359.159 549.803C362.003 549.803 364.343 549.623 366.395 549.263V544.295C363.911 544.655 362.831 544.655 360.887 544.655C357.143 544.655 356.351 543.611 356.351 539.507V533.387H366.395ZM368.38 541.991C368.38 548.759 375.94 549.803 384.112 549.803C392.284 549.803 397.684 548.759 397.684 542.783C397.684 537.131 392.032 536.915 383.752 536.303C376.444 535.763 375.328 535.547 375.328 534.215C375.328 532.991 376.984 532.559 382.816 532.559C388.54 532.559 390.772 532.991 390.772 534.755H396.964C396.964 528.923 391.168 527.879 383.176 527.879C375.616 527.879 369.136 528.923 369.136 534.467C369.136 539.579 373.708 540.299 383.032 540.839C390.484 541.307 391.492 541.415 391.492 543.035C391.492 544.691 390.412 545.123 383.752 545.123C376.876 545.123 374.536 544.259 374.536 541.991H368.38Z" fill="#FFEFEF"/>
<g clip-path="url(#clip0)">
<path opacity="0.1" d="M201.79 63.438C247.031 69.6297 283.764 112.685 324.524 139.553C333.606 145.54 343.126 150.812 353.191 152.374C386.533 157.549 417.277 121.688 450.775 124.616C477.924 126.989 500.948 155.744 510.716 189.568C520.484 223.391 518.986 261.222 513.562 296.728C505.068 352.176 486.252 406.724 453.499 442.79C448.094 448.743 442.057 454.312 435.116 455.665C423.548 457.946 412.821 448.145 402.81 440.042C357.627 403.456 300.507 394.166 250.062 415.197C232.977 422.318 216.637 432.707 199.154 437.834C165.486 447.688 127.386 435.236 104.528 400.868C81.6689 366.5 77.9523 310.011 99.7311 274.408C108.823 259.549 121.354 249.057 130.899 234.719C154.881 198.726 146.027 162.335 143.06 120.126C140.136 78.5354 175.361 59.8241 201.79 63.438Z" fill="#FAA3A3"/>
<g opacity="0.2">
<path opacity="0.2" d="M407.437 328.08C407.437 328.08 420.82 341.461 413.275 361.315C405.73 381.169 426.224 414.185 426.224 414.185L425.597 414.083C398.112 409.219 384.457 377.803 399.741 354.457C405.413 345.794 410.079 335.609 407.437 328.08Z" fill="#FAA3A3"/>
<path opacity="0.1" d="M407.437 328.323C407.437 328.323 420.82 341.704 413.275 361.558C405.73 381.412 426.224 414.428 426.224 414.428L425.597 414.326C398.112 409.462 384.457 378.047 399.741 354.7C405.413 346.013 410.079 335.833 407.437 328.323Z" fill="black"/>
<path opacity="0.2" d="M407.437 328.08C407.437 328.08 414.992 344.481 407.437 357.862C399.882 371.242 406.143 408.791 426.214 414.185" stroke="#535461" stroke-miterlimit="10"/>
<path opacity="0.2" d="M383.605 382.215C383.605 382.215 398.875 379.783 400.266 393.465C401.657 407.147 429.629 409.03 429.629 409.03L429.104 409.38C406.006 424.54 383.931 419.035 387.268 398.908C388.499 391.442 388.397 383.922 383.605 382.215Z" fill="#FAA3A3"/>
<path opacity="0.2" d="M383.605 382.215C383.605 382.215 395.46 384.817 394.482 395.59C393.504 406.364 412.082 419.282 429.629 409.044" stroke="#535461" stroke-miterlimit="10"/>
</g>
<g opacity="0.2">
<path opacity="0.2" d="M248.715 307.01C248.715 307.01 259.835 318.129 253.579 334.622C247.323 351.116 264.34 378.553 264.34 378.553L263.819 378.465C240.985 374.433 229.636 348.309 242.332 328.922C247.032 321.709 250.909 313.25 248.715 307.01Z" fill="#FAA3A3"/>
<path opacity="0.1" d="M248.715 307.195C248.715 307.195 259.836 318.313 253.58 334.807C247.324 351.3 264.34 378.737 264.34 378.737L263.795 378.664C240.961 374.632 229.612 348.508 242.308 329.121C247.032 321.893 250.909 313.435 248.715 307.195Z" fill="black"/>
<path opacity="0.2" d="M248.715 307.01C248.715 307.01 254.991 320.629 248.715 331.753C242.44 342.876 247.64 374.068 264.316 378.553" stroke="#535461" stroke-miterlimit="10"/>
<path opacity="0.2" d="M228.911 351.976C228.911 351.976 241.613 349.968 242.756 361.325C243.899 372.682 267.152 374.287 267.152 374.287L266.714 374.579C247.523 387.176 229.179 382.604 231.947 365.877C232.973 359.637 232.89 353.372 228.911 351.976Z" fill="#FAA3A3"/>
<path opacity="0.2" d="M228.911 351.976C228.911 351.976 238.757 354.136 237.95 363.09C237.142 372.045 252.572 382.779 267.137 374.277" stroke="#535461" stroke-miterlimit="10"/>
</g>
<g opacity="0.2">
<path opacity="0.2" d="M202.015 236.971C202.015 236.971 213.135 248.09 206.879 264.583C200.623 281.076 217.64 308.513 217.64 308.513L217.119 308.426C194.285 304.394 182.936 278.27 195.632 258.882C200.331 251.669 204.209 243.211 202.015 236.971Z" fill="#FAA3A3"/>
<path opacity="0.1" d="M202.015 237.155C202.015 237.155 213.135 248.274 206.88 264.767C200.624 281.261 217.64 308.698 217.64 308.698L217.095 308.625C194.261 304.593 182.912 278.469 195.608 259.082C200.332 251.854 204.209 243.396 202.015 237.155Z" fill="black"/>
<path opacity="0.2" d="M202.015 236.971C202.015 236.971 208.29 250.59 202.015 261.713C195.74 272.837 200.94 304.029 217.616 308.513" stroke="#535461" stroke-miterlimit="10"/>
<path opacity="0.2" d="M182.211 281.937C182.211 281.937 194.912 279.928 196.056 291.285C197.199 302.642 220.451 304.248 220.451 304.248L220.014 304.539C200.823 317.137 182.478 312.565 185.246 295.838C186.273 289.598 186.19 283.333 182.211 281.937Z" fill="#FAA3A3"/>
<path opacity="0.2" d="M182.211 281.937C182.211 281.937 192.057 284.097 191.249 293.051C190.442 302.005 205.872 312.74 220.437 304.238" stroke="#535461" stroke-miterlimit="10"/>
</g>
<path d="M82.1807 351.125V344.496L218.044 306.397L242.343 303.635V309.71L107.034 358.3L82.1807 351.125Z" fill="#DFE5EE"/>
<path opacity="0.05" d="M82.1807 351.125V344.496L218.044 306.397L242.343 303.635V309.71L107.034 358.3L82.1807 351.125Z" fill="black"/>
<path d="M82.1807 344.496L218.044 299.768L241.793 303.635L107.034 351.675L82.1807 344.496Z" fill="#DFE5EE"/>
<path d="M112.005 243.444H103.166V346.154H112.005V243.444Z" fill="#DFE5EE"/>
<path d="M218.044 219.699H209.205V309.71H218.044V219.699Z" fill="#DFE5EE"/>
<path d="M240.133 191.537V219.149L129.809 243.79L116.758 246.708L84.3887 253.936L75 251.173V219.149L125.062 209.607L137.52 207.233L228.536 189.884L240.133 191.537Z" fill="#DFE5EE"/>
<path opacity="0.05" d="M240.133 191.537V219.149L129.809 243.79L116.758 246.708L84.3887 253.936L75 251.173V219.149L125.062 209.607L137.52 207.233L228.536 189.884L240.133 191.537Z" fill="black"/>
<path opacity="0.05" d="M112.005 243.444V248.872L103.166 250.847V243.444H112.005Z" fill="black"/>
<path opacity="0.05" d="M218.044 219.699V225.19L209.205 227.16V219.699H218.044Z" fill="black"/>
<path d="M240.133 191.537V219.149L195.34 229.154L182.313 232.063L129.809 243.79L116.758 246.708L84.3887 253.936L84.9432 222.462L129.926 213.498L142.511 210.993H142.516L193.939 200.744L206.5 198.24L240.133 191.537Z" fill="#DFE5EE"/>
<path d="M142.516 210.993L129.81 243.79L116.758 246.708L129.926 213.497L125.062 209.606L137.52 207.233L142.511 210.993H142.516Z" fill="#FAA3A3"/>
<path d="M207.132 198.716L195.34 229.154L182.313 232.063L194.543 201.221L193.939 200.745L189.678 197.33L202.136 194.957L206.5 198.24L207.127 198.716H207.132Z" fill="#FAA3A3"/>
<path opacity="0.05" d="M105.103 344.36L113.937 342.288V344.36L105.103 346.432V344.36Z" fill="black"/>
<path opacity="0.05" d="M210.586 307.915L219.42 305.843V307.915L210.586 309.987V307.915Z" fill="black"/>
<path d="M395.932 232.51C381.849 239.928 367.27 231.538 367.27 231.538C367.041 231.966 366.779 232.376 366.486 232.763C366.306 232.627 366.122 232.486 365.937 232.335C359.885 227.389 353.187 215.711 353.187 215.711L340.135 191.241C338.536 188.3 337.33 185.162 336.55 181.907C334.399 172.578 327.536 172.179 327.536 172.179H319.494C315.603 172.179 309.979 172.996 304.414 174.125C304.562 173.973 304.659 173.779 304.691 173.57L304.424 173.624L307.411 170.705C307.411 170.705 315.958 167.242 316.965 159.825L321.489 155.374C321.489 155.374 321.635 154.985 321.839 154.3L323.342 152.408C329.89 144.212 330.362 144.076 330.362 144.076L350.214 132.33C350.214 132.33 357.341 131.318 354.369 111.391C351.396 91.4634 353.396 89.0168 353.396 89.0168C353.396 89.0168 358.795 69.0507 348.444 71.5361C338.092 74.0215 342.771 91.0888 342.771 91.0888L343.491 94.8583C344.394 99.579 344.344 104.432 343.345 109.134C342.27 114.216 341.069 120.496 341.37 121.994C341.901 124.606 335.922 127.913 335.922 127.913L332.541 129.888C328.962 131.977 324.746 132.696 320.676 131.911L320.496 131.639L318.473 130.121C318.413 130.329 318.364 130.54 318.327 130.754L317.5 130.121V130.17C317.5 129.995 317.5 129.829 317.539 129.645C317.776 127.774 318.215 125.935 318.847 124.158C318.901 123.993 318.969 123.818 319.027 123.672C322.809 123.443 326.363 121.786 328.969 119.036C331.576 116.286 333.04 112.65 333.067 108.861C333.067 107.301 332.818 105.751 332.327 104.27C332.71 104.341 333.102 104.341 333.485 104.27C335.304 103.978 337.236 103.044 338.179 101.434C338.678 100.55 338.908 99.5395 338.839 98.5266C338.771 97.5137 338.408 96.543 337.795 95.7338C337.563 95.4381 337.302 95.166 337.017 94.9216C335.29 92.976 332.4 92.4896 330.104 91.1812C327.92 89.9507 326.261 87.9857 324.228 86.5217C320.385 83.7444 315.471 82.9078 310.782 82.1442C308.768 81.8183 306.72 81.4924 304.696 81.7599C302.137 82.1004 299.783 83.3796 297.779 84.9798C297.068 85.4904 296.473 86.1451 296.032 86.901C295.288 88.3602 295.614 90.0723 295.483 91.6871C295.162 95.6171 292.077 98.8175 288.672 100.904C286.581 102.183 284.294 103.205 282.538 104.922C280.782 106.639 279.746 109.348 280.84 111.517C281.419 112.665 282.562 113.623 282.572 114.922C282.534 115.493 282.368 116.048 282.086 116.546C280.917 118.985 279.339 121.206 277.42 123.112C270.318 121.4 262.652 125.165 262.652 125.165L239.52 126.138C239.52 126.138 232.982 123.171 224.44 141.469C215.898 159.767 212.872 160.759 212.872 160.759C212.872 160.759 197.305 174.606 207.341 178.069C217.377 181.532 222.908 164.713 222.908 164.713L228.478 154.363C228.478 154.363 241.048 142.49 242.055 140.019C243.062 137.548 249.094 137.548 249.094 137.548L273.616 138.521C273.649 138.719 273.668 138.919 273.675 139.119C273.733 141.863 271.16 143.983 268.572 145C266.937 145.652 265.069 146.143 264.072 147.573C263.075 149.003 263.313 151.08 264.315 152.539C264.621 152.975 264.979 153.372 265.381 153.721C266.432 154.805 267.716 155.636 269.136 156.153C270.313 156.622 271.538 156.961 272.789 157.164C272.281 159.264 271.589 161.314 270.722 163.293L271.695 163.711L271.374 164.567C270.002 168.21 267.176 175.399 264.675 179.747C264.651 179.747 260.132 183.58 256.624 187.043C253.944 189.679 247.484 215.059 266.388 215.516L270.702 218.697H270.79C274.628 224.115 287.3 233.016 287.3 233.016L264.889 234.339C263.771 234.407 262.659 234.542 261.557 234.743C261.191 234.808 260.824 234.881 260.458 234.962C256.508 235.828 252.134 235.521 249.79 235.244C248.238 232.326 241.033 233.512 241.033 233.512C241.033 233.512 240.026 248.352 241.52 256.757C243.013 265.162 248.559 259.724 248.559 259.724C247.552 252.306 255.856 246.849 255.856 246.849C256.911 246.319 258.162 245.677 259.631 244.904C264.291 242.404 286.459 246.227 293.313 247.491C294.822 247.772 296.356 247.902 297.891 247.88C317.539 247.559 312.436 237.977 312.436 237.977L308.481 230.195C307.832 228.901 307.254 227.573 306.749 226.217C303.256 216.975 297.827 211.888 293.668 209.164C293.892 208.882 294.116 208.6 294.335 208.303C294.335 208.303 294.004 208.225 293.503 208.074C297.015 206.28 299.34 204.845 299.34 204.845C299.34 204.845 322.471 190.997 321.469 194.46C320.467 197.924 326.499 211.275 337.561 220.672C337.883 220.944 338.194 221.221 338.505 221.504L338.807 221.781L339.425 222.364L339.76 222.69L340.334 223.264L340.655 223.595L341.263 224.247L341.507 224.509C341.782 224.814 342.055 225.122 342.324 225.434L342.499 225.643C342.707 225.889 342.913 226.136 343.117 226.382L343.394 226.727L343.881 227.35L344.163 227.715L344.649 228.352L344.902 228.687L345.466 229.471L345.603 229.655C345.833 229.98 346.058 230.304 346.279 230.628L346.444 230.876L346.931 231.611L347.135 231.927L347.568 232.608L347.758 232.909L348.21 233.653L348.341 233.867C348.734 234.516 349.107 235.164 349.46 235.813L349.519 235.92L349.981 236.757L350.054 236.893L350.496 237.729L350.526 237.788C351.772 240.168 352.888 242.615 353.868 245.118C353.302 245.254 352.729 245.351 352.15 245.409C349.134 258.766 357.18 258.766 357.18 258.766C357.18 258.766 386.854 254.315 397.917 242.939C408.979 231.562 395.932 232.51 395.932 232.51Z" fill="url(#paint2_linear)"/>
<path d="M288.313 207.213C288.313 207.213 300.542 210.385 306.642 226.776C307.132 228.102 307.692 229.401 308.321 230.667L312.149 238.342C312.149 238.342 317.087 247.763 298.081 248.07C296.596 248.091 295.113 247.962 293.654 247.686C287.023 246.445 265.58 242.686 261.061 245.142C258.536 246.572 255.938 247.871 253.278 249.033L247.927 243.196L249.873 235.414C249.873 235.414 256.299 236.62 261.849 235.38C263.259 235.062 264.692 234.857 266.135 234.767L287.826 233.478C287.826 233.478 270.8 221.319 270.8 216.941C270.8 212.564 288.313 207.213 288.313 207.213Z" fill="#F8BDC5"/>
<path opacity="0.05" d="M251.828 236.883C251.828 236.883 246.477 245.609 257.417 247.097C257.417 247.097 249.396 252.447 250.368 259.743C250.368 259.743 245.017 265.093 243.558 256.825C242.099 248.556 243.072 233.965 243.072 233.965C243.072 233.965 251.828 232.505 251.828 236.883Z" fill="black"/>
<path opacity="0.05" d="M288.313 207.213C288.313 207.213 300.542 210.385 306.642 226.776C307.132 228.102 307.692 229.401 308.321 230.667L312.149 238.342C312.149 238.342 317.087 247.763 298.081 248.07C296.596 248.091 295.113 247.962 293.654 247.686C287.023 246.445 265.58 242.686 261.061 245.142C258.536 246.572 255.938 247.871 253.278 249.033L247.927 243.196L249.873 235.414C249.873 235.414 256.299 236.62 261.849 235.38C263.259 235.062 264.692 234.857 266.135 234.767L287.826 233.478C287.826 233.478 270.8 221.319 270.8 216.941C270.8 212.564 288.313 207.213 288.313 207.213Z" fill="black"/>
<path opacity="0.05" d="M250.368 244.179L252.314 236.397C252.314 236.397 258.74 237.603 264.291 236.362C265.701 236.045 267.134 235.84 268.577 235.75L290.258 234.451C290.258 234.451 273.232 222.291 273.232 217.914C273.232 213.536 290.744 208.186 290.744 208.186L290.876 208.225C290.052 207.814 289.194 207.476 288.312 207.213C288.312 207.213 270.8 212.564 270.8 216.941C270.8 221.319 287.826 233.478 287.826 233.478L266.149 234.777C264.706 234.867 263.273 235.072 261.863 235.39C256.313 236.63 249.887 235.424 249.887 235.424L247.941 243.206L253.292 249.043C253.292 249.043 253.652 248.897 254.391 248.556L250.368 244.179Z" fill="black"/>
<path d="M251.828 236.883C251.828 236.883 246.477 245.609 257.417 247.097C257.417 247.097 249.396 252.447 250.368 259.743C250.368 259.743 245.017 265.093 243.558 256.825C242.099 248.556 243.072 233.965 243.072 233.965C243.072 233.965 251.828 232.505 251.828 236.883Z" fill="#FFD97B"/>
<path d="M237.361 377.877V371.247L373.224 333.149L397.523 330.386V336.461L262.214 385.051L237.361 377.877Z" fill="#DFE5EE"/>
<path opacity="0.05" d="M237.361 377.877V371.247L373.224 333.149L397.523 330.386V336.461L262.214 385.051L237.361 377.877Z" fill="black"/>
<path d="M237.361 371.247L373.224 326.519L396.973 330.386L262.214 378.426L237.361 371.247Z" fill="#DFE5EE"/>
<path d="M267.186 270.196H258.347V372.906H267.186V270.196Z" fill="#DFE5EE"/>
<path d="M373.224 246.45H364.385V336.461H373.224V246.45Z" fill="#DFE5EE"/>
<path d="M395.314 218.288V245.9L284.99 270.541L271.938 273.459L239.569 280.687L230.18 277.924V245.9L280.237 236.358L292.7 233.984L383.717 216.635L395.314 218.288Z" fill="#DFE5EE"/>
<path opacity="0.05" d="M395.314 218.288V245.9L284.99 270.541L271.938 273.459L239.569 280.687L230.18 277.924V245.9L280.237 236.358L292.7 233.984L383.717 216.635L395.314 218.288Z" fill="black"/>
<path opacity="0.05" d="M267.186 270.196V275.624L258.347 277.598V270.196H267.186Z" fill="black"/>
<path opacity="0.05" d="M373.224 246.45V251.941L364.385 253.911V246.45H373.224Z" fill="black"/>
<path d="M395.315 218.289V245.901L350.522 255.906L337.494 258.814L284.991 270.541L271.939 273.46L239.57 280.687L240.124 249.213L285.107 240.249L297.692 237.744H297.697L349.121 227.496L361.681 224.991L395.315 218.289Z" fill="#DFE5EE"/>
<path d="M297.696 237.744L284.99 270.541L271.938 273.46L285.106 240.249L280.237 236.358L292.7 233.984L297.691 237.744H297.696Z" fill="#FAA3A3"/>
<path d="M362.313 225.467L350.522 255.905L337.494 258.814L349.724 227.972L349.121 227.495L344.859 224.081L357.317 221.707L361.681 224.991L362.308 225.467H362.313Z" fill="#FAA3A3"/>
<path opacity="0.05" d="M260.283 371.111L269.117 369.039V371.111L260.283 373.183V371.111Z" fill="black"/>
<path opacity="0.05" d="M365.766 334.666L374.6 332.594V334.666L365.766 336.733V334.666Z" fill="black"/>
<path d="M348.697 134.45L329.492 146.002C329.492 146.002 329.035 146.138 322.681 154.198L320.4 157.116C315.574 163.317 305.543 165.385 305.543 165.385L299.181 155.598L297.838 143.711L299.249 138.911L300.367 135.107L310.155 136.508L314.095 138.633L318.96 133.769C319.339 133.872 319.724 133.964 320.108 134.037C324.045 134.813 328.131 134.112 331.584 132.067L334.853 130.122C334.853 130.122 340.632 126.868 340.121 124.285C339.829 122.826 340.992 116.639 342.033 111.639C342.999 107.014 343.047 102.245 342.174 97.6018L341.478 93.8955C341.478 93.8955 336.959 77.1055 346.965 74.6735C356.972 72.2416 351.757 91.8624 351.757 91.8624C351.757 91.8624 349.84 94.2652 352.73 113.862C355.62 133.458 348.697 134.45 348.697 134.45Z" fill="#F8BDC5"/>
<path d="M317.038 131.843C316.493 136.989 318.96 137.68 318.96 137.68L320.419 143.516V149.839L316.041 157.135H305.339L296.096 152.758V132.33L294.637 127.466C295.453 127.413 296.266 127.308 297.069 127.15C301.763 126.211 304.424 123.604 305.923 120.773C308.258 116.342 307.771 111.396 307.771 111.396C307.771 111.396 327.23 106.045 320.419 121.123C319.514 123.132 318.824 124.898 318.303 126.473C317.693 128.214 317.269 130.014 317.038 131.843V131.843Z" fill="#F8BDC5"/>
<path d="M304.653 174.543C304.621 174.758 304.52 174.958 304.365 175.112C304.112 175.406 303.901 175.733 303.738 176.085C301.461 180.379 297.069 195.54 297.069 195.54L273.232 186.785L272.887 186.698L263.503 184.353C266.164 182.451 270.61 171.046 272.42 166.153C272.906 164.786 273.232 163.925 273.232 163.925L298.528 166.357C298.528 166.357 305.085 172.096 304.653 174.543Z" fill="#F8BDC5"/>
<path d="M294.637 125.987C294.637 125.987 287.34 128.905 280.043 125.987C272.746 123.068 263.99 127.446 263.99 127.446L241.612 128.419C241.612 128.419 235.288 125.5 227.019 143.497C218.749 161.493 215.83 162.466 215.83 162.466C215.83 162.466 200.75 176.085 210.479 179.489C220.208 182.894 225.559 166.357 225.559 166.357L230.91 156.143C230.91 156.143 243.072 144.469 244.045 142.038C245.018 139.606 250.855 139.606 250.855 139.606L275.178 140.578L275.027 147.689L282.475 154.197L289.285 148.361L294.637 137.66V125.987Z" fill="#F8BDC5"/>
<path opacity="0.1" d="M320.418 121.123C319.514 123.132 318.823 124.898 318.302 126.474C318.04 126.474 317.767 126.474 317.5 126.474C315.259 126.476 313.048 125.961 311.039 124.969C309.03 123.977 307.277 122.534 305.917 120.754C308.257 116.342 307.77 111.396 307.77 111.396C307.77 111.396 327.229 106.045 320.418 121.123Z" fill="black"/>
<path d="M317.5 125.987C325.56 125.987 332.094 119.454 332.094 111.396C332.094 103.337 325.56 96.8041 317.5 96.8041C309.44 96.8041 302.906 103.337 302.906 111.396C302.906 119.454 309.44 125.987 317.5 125.987Z" fill="#F8BDC5"/>
<path opacity="0.1" d="M304.652 174.543C304.62 174.758 304.52 174.958 304.365 175.112C304.112 175.406 303.901 175.733 303.738 176.085C295.084 175.705 276.146 167.763 272.419 166.172C272.906 164.805 273.232 163.944 273.232 163.944L298.528 166.376C298.528 166.376 305.085 172.096 304.652 174.543Z" fill="black"/>
<path opacity="0.1" d="M322.7 154.197L320.419 157.116C315.593 163.317 305.562 165.384 305.562 165.384L299.2 155.598L297.857 143.711L298.285 132.067C299.642 138.39 303.437 151.581 309.23 152.738C318.916 154.684 318.22 140.807 317.743 134.985C317.671 134.086 317.753 133.181 317.987 132.31L319.932 133.769L320.108 134.037C324.744 141.235 323.703 149.805 322.7 154.197Z" fill="black"/>
<path d="M297.068 125.014H292.204C292.204 125.014 297.068 156.143 274.205 147.388C274.205 147.388 276.151 154.684 271.772 164.898C271.772 164.898 295.122 175.112 304.365 175.112L307.284 172.194C307.284 172.194 315.554 168.789 316.527 161.493L320.905 157.116C320.905 157.116 325.769 143.983 318.959 133.769L317.013 132.31C316.779 133.181 316.697 134.086 316.77 134.985C317.256 140.822 317.942 154.674 308.257 152.738C296.095 150.306 297.068 125.014 297.068 125.014Z" fill="#EB6576"/>
<path d="M263.989 213.537L271.773 219.373C271.773 219.373 284.421 223.264 294.636 209.159C294.636 209.159 288.312 207.7 289.285 204.295C290.258 200.891 263.989 213.537 263.989 213.537Z" fill="#5E52AD"/>
<path opacity="0.05" d="M263.989 213.537L271.773 219.373C271.773 219.373 284.421 223.264 294.636 209.159C294.636 209.159 288.312 207.7 289.285 204.295C290.258 200.891 263.989 213.537 263.989 213.537Z" fill="black"/>
<path opacity="0.1" d="M304.652 175.029C304.621 175.245 304.52 175.444 304.365 175.598C302.42 177.544 297.069 196.027 297.069 196.027L273.232 187.272L272.887 187.184C274.734 186.017 276.689 185.03 278.724 184.237C280.383 183.595 282.052 182.914 283.496 182.262C284.667 181.761 285.792 181.159 286.858 180.462C288.896 179.003 296.723 176.668 304.652 175.029Z" fill="black"/>
<path d="M359.822 244.179L352.525 246.124C352.525 246.124 352.36 245.638 352.039 244.792C350.482 240.832 345.297 228.93 336.472 221.319C325.77 212.077 319.933 198.945 320.905 195.54C321.878 192.135 299.501 205.754 299.501 205.754C299.501 205.754 283.278 215.847 272.556 215.861C270.954 215.907 269.361 215.612 267.881 214.995C263.747 213.133 262.073 209.869 261.514 206.727C261.183 204.738 261.271 202.702 261.774 200.749C262.276 198.797 263.182 196.971 264.432 195.389C268.139 190.598 273.085 186.91 278.734 184.723C280.393 184.081 282.062 183.4 283.507 182.748C284.677 182.247 285.802 181.645 286.868 180.948C290.273 178.517 309.732 173.653 318.974 173.653H326.758C326.758 173.653 333.393 174.042 335.475 183.215C336.225 186.406 337.386 189.486 338.929 192.379L351.552 216.455C351.552 216.455 358.032 227.938 363.884 232.802C365.553 234.193 367.173 235.044 368.578 234.937C374.902 234.451 359.822 244.179 359.822 244.179Z" fill="#F8BDC5"/>
<path opacity="0.1" d="M337.037 104.11C337.519 103.239 337.741 102.247 337.675 101.254C337.61 100.26 337.26 99.3065 336.667 98.5064C335.032 96.3809 332.08 95.8945 329.749 94.5618C327.633 93.3507 326.033 91.4198 324.068 89.9801C320.351 87.2514 315.613 86.4246 311.064 85.6804C309.119 85.3594 307.134 85.0384 305.178 85.3059C302.702 85.6415 300.426 86.9012 298.485 88.4723C297.796 88.9761 297.221 89.6191 296.797 90.3594C296.077 91.7797 296.393 93.482 296.266 95.0677C295.955 98.9344 292.968 102.081 289.675 104.129C287.651 105.389 285.423 106.391 283.74 108.078C282.057 109.766 281.04 112.432 282.101 114.562C282.665 115.69 283.769 116.634 283.774 117.899C283.742 118.459 283.586 119.006 283.317 119.499C282.165 121.949 280.594 124.179 278.676 126.089C276.954 127.801 274.896 129.338 274.001 131.6C273.14 133.774 273.515 136.255 274.308 138.458C274.677 139.509 275.139 140.559 275.159 141.668C275.212 144.368 272.727 146.44 270.221 147.451C268.64 148.089 266.816 148.575 265.868 149.981C264.919 151.386 265.133 153.429 266.101 154.845C267.069 156.26 268.631 157.208 270.236 157.855C273.216 159.11 276.519 159.38 279.664 158.624C281.223 158.234 282.684 157.523 283.953 156.537C285.222 155.55 286.271 154.309 287.033 152.894C288.493 150.054 288.59 146.571 290.614 144.091C294.179 139.757 301.7 140.851 305.422 136.644C308.408 133.264 307.596 128.142 307.367 123.638C307.235 121.129 307.34 118.613 307.679 116.123C307.922 114.353 308.37 112.451 309.761 111.332C310.885 110.428 312.402 110.223 313.832 110.048C316.819 109.674 320.259 108.949 321.616 106.259C322.18 105.141 322.35 103.73 323.367 103.001C324.773 101.989 326.743 103.001 327.969 104.217C329.321 105.564 330.455 107.222 332.512 106.887C334.259 106.614 336.127 105.695 337.037 104.11Z" fill="black"/>
<path d="M336.511 103.584C336.992 102.713 337.213 101.721 337.147 100.728C337.08 99.7341 336.73 98.7807 336.136 97.9811C334.502 95.8556 331.549 95.3692 329.219 94.0365C327.103 92.8254 325.502 90.8944 323.537 89.4547C319.82 86.7261 315.082 85.8993 310.534 85.1551C308.588 84.8341 306.603 84.513 304.648 84.7806C302.172 85.1162 299.895 86.3759 297.954 87.9469C297.265 88.4508 296.69 89.0938 296.266 89.8341C295.546 91.2544 295.862 92.9567 295.736 94.5423C295.424 98.4091 292.437 101.556 289.144 103.604C287.12 104.863 284.892 105.865 283.209 107.553C281.526 109.241 280.509 111.906 281.57 114.037C282.134 115.165 283.239 116.109 283.243 117.373C283.211 117.934 283.055 118.481 282.786 118.974C281.634 121.423 280.064 123.654 278.145 125.564C276.423 127.276 274.365 128.813 273.47 131.075C272.609 133.249 272.984 135.73 273.777 137.933C274.147 138.983 274.609 140.034 274.628 141.143C274.682 143.842 272.196 145.914 269.691 146.926C268.11 147.563 266.285 148.05 265.337 149.455C264.388 150.861 264.602 152.904 265.57 154.319C266.538 155.735 268.1 156.683 269.705 157.33C272.685 158.585 275.989 158.854 279.133 158.098C280.692 157.709 282.154 156.998 283.423 156.011C284.692 155.025 285.741 153.784 286.503 152.369C287.962 149.528 288.059 146.046 290.083 143.565C293.649 139.231 301.169 140.326 304.891 136.119C307.878 132.738 307.065 127.617 306.837 123.113C306.705 120.604 306.809 118.088 307.148 115.598C307.391 113.828 307.839 111.926 309.23 110.807C310.354 109.902 311.872 109.698 313.302 109.523C316.289 109.149 319.728 108.424 321.085 105.734C321.649 104.615 321.82 103.205 322.836 102.475C324.242 101.464 326.212 102.475 327.438 103.691C328.791 105.039 329.924 106.697 331.982 106.362C333.728 106.084 335.601 105.165 336.511 103.584Z" fill="#6E464E"/>
<path opacity="0.1" d="M286.124 161.25C286.124 161.25 291.475 165.627 298.286 165.141Z" fill="black"/>
<path opacity="0.05" d="M369.755 235.025C366.963 237.768 360.795 241.747 360.795 241.747L353.498 243.693C353.498 243.693 348.147 228.128 337.444 218.887C326.742 209.646 320.905 196.513 321.878 193.108C322.851 189.704 300.474 203.323 300.474 203.323C300.474 203.323 284.25 213.415 273.529 213.43C271.927 213.475 270.333 213.18 268.854 212.564C264.719 210.701 263.045 207.437 262.486 204.295C262.108 202.136 262.245 199.918 262.885 197.822C261.473 200.562 260.991 203.688 261.513 206.727C262.072 209.869 263.746 213.133 267.881 214.996C269.36 215.612 270.954 215.907 272.556 215.862C283.258 215.862 299.501 205.754 299.501 205.754C299.501 205.754 321.878 192.136 320.905 195.54C319.932 198.945 325.769 212.078 336.472 221.319C347.174 230.56 352.525 246.125 352.525 246.125L359.822 244.179C359.822 244.179 372.416 236.051 369.755 235.025Z" fill="black"/>
<path opacity="0.1" d="M283.935 182.894L283.108 183.279C277.071 186.05 272.126 190.748 269.049 196.635C262.53 209.32 271.146 215.035 272.556 215.862C270.954 215.907 269.361 215.612 267.881 214.996C263.747 213.133 262.073 209.869 261.514 206.727C261.183 204.738 261.271 202.702 261.774 200.75C262.276 198.797 263.182 196.971 264.432 195.39C268.139 190.598 273.085 186.91 278.734 184.723C280.393 184.081 282.062 183.4 283.507 182.748L283.935 182.894Z" fill="black"/>
<path d="M282.961 182.894C282.961 182.894 272.746 179.266 265.935 181.08C265.935 181.08 261.557 184.84 258.152 188.244C255.379 191.017 248.423 219.373 271.773 215.968C271.773 215.968 260.993 210.414 268.076 196.634C271.152 190.748 276.097 186.05 282.134 183.278L282.961 182.894Z" fill="#5E52AD"/>
<path opacity="0.1" d="M359.822 244.179L352.525 246.124C352.525 246.124 352.36 245.638 352.039 244.792C353.736 244.344 355.93 243.332 355.93 241.26C355.93 241.26 361.5 236.061 363.884 232.802C365.552 234.193 367.172 235.044 368.578 234.937C374.902 234.451 359.822 244.179 359.822 244.179Z" fill="black"/>
<path d="M356.417 241.747C356.417 241.747 363.714 234.937 365.173 232.019C365.173 232.019 379.281 240.288 392.902 232.992C392.902 232.992 405.55 232.019 394.848 243.206C384.145 254.393 355.444 258.77 355.444 258.77C355.444 258.77 347.661 258.77 350.58 245.638C350.58 245.638 356.417 245.152 356.417 241.747Z" fill="#FFD97B"/>
<path d="M399.838 411.924V405.294L535.701 367.196L560 364.433V370.508L424.691 419.098L399.838 411.924Z" fill="#DFE5EE"/>
<path opacity="0.05" d="M399.838 411.924V405.294L535.701 367.196L560 364.433V370.508L424.691 419.098L399.838 411.924Z" fill="black"/>
<path d="M399.838 405.294L535.701 360.566L559.45 364.433L424.691 412.473L399.838 405.294Z" fill="#DFE5EE"/>
<path d="M429.663 304.242H420.824V406.953H429.663V304.242Z" fill="#DFE5EE"/>
<path d="M535.701 280.497H526.862V370.508H535.701V280.497Z" fill="#DFE5EE"/>
<path d="M557.792 252.336V279.948L447.468 304.588L434.416 307.506L402.047 314.734L392.658 311.971V279.948L442.715 270.405L455.178 268.031L546.194 250.682L557.792 252.336Z" fill="#DFE5EE"/>
<path opacity="0.05" d="M557.792 252.336V279.948L447.468 304.588L434.416 307.506L402.047 314.734L392.658 311.971V279.948L442.715 270.405L455.178 268.031L546.194 250.682L557.792 252.336Z" fill="black"/>
<path opacity="0.05" d="M429.663 304.242V309.671L420.824 311.645V304.242H429.663Z" fill="black"/>
<path opacity="0.05" d="M535.701 280.497V285.989L526.862 287.959V280.497H535.701Z" fill="black"/>
<path d="M557.792 252.336V279.948L512.999 289.953L499.971 292.861L447.468 304.588L434.416 307.506L402.047 314.734L402.601 283.26L447.584 274.296L460.169 271.791H460.174L511.598 261.543L524.158 259.038L557.792 252.336Z" fill="#DFE5EE"/>
<path d="M460.174 271.791L447.467 304.588L434.416 307.506L447.584 274.296L442.715 270.405L455.178 268.031L460.169 271.791H460.174Z" fill="#FAA3A3"/>
<path d="M524.79 259.515L512.998 289.953L499.971 292.861L512.2 262.019L511.597 261.543L507.336 258.128L519.794 255.755L524.158 259.038L524.785 259.515H524.79Z" fill="#FAA3A3"/>
<path opacity="0.05" d="M422.76 405.158L431.594 403.086V405.158L422.76 407.23V405.158Z" fill="black"/>
<path opacity="0.05" d="M528.244 368.713L537.078 366.641V368.713L528.244 370.78V368.713Z" fill="black"/>
</g>
</g>
<defs>
<filter id="filter0_ii" x="-4" y="-4" width="643.283" height="643" filterUnits="userSpaceOnUse" color-interpolation-filters="sRGB">
<feFlood flood-opacity="0" result="BackgroundImageFix"/>
<feBlend mode="normal" in="SourceGraphic" in2="BackgroundImageFix" result="shape"/>
<feColorMatrix in="SourceAlpha" type="matrix" values="0 0 0 0 0 0 0 0 0 0 0 0 0 0 0 0 0 0 127 0" result="hardAlpha"/>
<feOffset dx="4" dy="-4"/>
<feGaussianBlur stdDeviation="4.5"/>
<feComposite in2="hardAlpha" operator="arithmetic" k2="-1" k3="1"/>
<feColorMatrix type="matrix" values="0 0 0 0 0 0 0 0 0 0 0 0 0 0 0 0 0 0 0.25 0"/>
<feBlend mode="normal" in2="shape" result="effect1_innerShadow"/>
<feColorMatrix in="SourceAlpha" type="matrix" values="0 0 0 0 0 0 0 0 0 0 0 0 0 0 0 0 0 0 127 0" result="hardAlpha"/>
<feOffset dx="-4" dy="4"/>
<feGaussianBlur stdDeviation="3"/>
<feComposite in2="hardAlpha" operator="arithmetic" k2="-1" k3="1"/>
<feColorMatrix type="matrix" values="0 0 0 0 1 0 0 0 0 1 0 0 0 0 1 0 0 0 0.3 0"/>
<feBlend mode="normal" in2="effect1_innerShadow" result="effect2_innerShadow"/>
</filter>
<linearGradient id="paint0_linear" x1="338.5" y1="663" x2="337.529" y2="521.952" gradientUnits="userSpaceOnUse">
<stop stop-color="#FF2020"/>
<stop offset="1" stop-color="#FD8F8F"/>
</linearGradient>
<linearGradient id="paint1_linear" x1="296.5" y1="663" x2="354.609" y2="344.104" gradientUnits="userSpaceOnUse">
<stop stop-color="#FF2020"/>
<stop offset="1" stop-color="#FD8F8F"/>
</linearGradient>
<linearGradient id="paint2_linear" x1="303.179" y1="261.446" x2="303.179" y2="71.3026" gradientUnits="userSpaceOnUse">
<stop stop-color="#808080" stop-opacity="0.25"/>
<stop offset="0.54" stop-color="#808080" stop-opacity="0.12"/>
<stop offset="1" stop-color="#808080" stop-opacity="0.1"/>
</linearGradient>
<clipPath id="clip0">
<rect width="485" height="393" fill="white" transform="translate(75 63)"/>
</clipPath>
</defs>
</svg>
