<?xml version="1.0" standalone="no"?>
<!DOCTYPE svg PUBLIC "-//W3C//DTD SVG 20010904//EN"
 "http://www.w3.org/TR/2001/REC-SVG-20010904/DTD/svg10.dtd">
<svg version="1.0" xmlns="http://www.w3.org/2000/svg"
 width="816.000000pt" height="816.000000pt" viewBox="0 0 816.000000 816.000000"
 preserveAspectRatio="xMidYMid meet">
<metadata>
Created by potrace 1.14, written by Peter Selinger 2001-2017
</metadata>
<g transform="translate(0.000000,816.000000) scale(0.100000,-0.100000)"
fill="#000000" stroke="none">
<path d="M3858 7065 c-1 -2 -34 -6 -73 -10 -38 -3 -81 -8 -95 -10 -14 -2 -45
-7 -70 -10 -400 -55 -843 -229 -1211 -476 -195 -130 -461 -368 -594 -530 -50
-61 -66 -80 -96 -117 -9 -10 -45 -61 -80 -113 -35 -52 -66 -96 -70 -99 -14
-13 -132 -227 -176 -320 -68 -142 -139 -326 -169 -435 -2 -5 -10 -35 -18 -65
-21 -72 -63 -271 -72 -335 -3 -27 -8 -59 -10 -70 -26 -133 -26 -614 0 -765 3
-14 7 -43 10 -65 3 -22 7 -50 10 -61 2 -12 7 -37 10 -55 3 -19 15 -72 26 -119
12 -47 23 -94 25 -106 3 -11 23 -76 46 -144 223 -672 669 -1236 1270 -1603
690 -423 1522 -548 2297 -345 466 121 860 331 1235 656 81 71 100 96 78 104
-5 2 -46 37 -91 78 -45 41 -90 81 -99 90 -16 13 -130 115 -195 175 -67 61
-190 171 -205 185 -23 19 -134 119 -301 270 -46 41 -91 82 -100 90 -15 13
-134 120 -194 175 -30 26 -160 143 -184 164 -11 9 -59 52 -108 97 -49 44 -109
98 -134 120 -24 21 -51 46 -60 54 -14 13 -121 109 -206 186 -13 12 -58 52
-100 90 -42 38 -86 77 -97 87 -18 15 -122 109 -204 184 -38 34 -161 144 -181
162 -11 9 -61 54 -113 101 -97 89 -149 135 -289 260 -46 41 -93 84 -104 95
-12 11 -60 54 -106 95 -47 41 -90 80 -96 85 -17 16 -160 144 -181 163 -11 9
-55 49 -99 89 -43 39 -89 80 -101 90 -12 10 -58 52 -103 93 -45 41 -90 81 -99
90 -20 17 -157 140 -201 180 -15 14 -60 54 -100 90 -40 36 -85 76 -100 90 -15
14 -62 57 -105 95 -127 114 -131 118 -115 109 17 -8 102 -66 110 -74 3 -3 100
-68 215 -146 203 -135 497 -334 963 -648 123 -83 235 -159 250 -168 15 -9 32
-21 37 -25 6 -5 100 -69 210 -143 110 -73 297 -199 415 -278 118 -80 312 -211
430 -290 118 -80 289 -195 380 -256 91 -61 167 -114 168 -118 2 -5 9 -8 16 -8
7 0 21 -9 31 -20 10 -11 22 -20 28 -20 5 0 26 -14 47 -30 21 -17 42 -30 48
-30 6 0 12 -3 14 -8 2 -4 104 -75 228 -158 244 -164 516 -347 540 -364 8 -6
101 -68 205 -138 105 -70 272 -183 373 -251 105 -71 187 -120 192 -115 16 17
138 268 175 359 65 161 144 431 170 580 16 92 25 158 31 220 3 39 8 84 10 100
7 50 6 386 -1 450 -14 132 -24 211 -36 280 -6 33 -13 71 -15 85 -3 14 -10 43
-16 65 -5 22 -12 48 -13 57 -15 77 -84 289 -137 418 -40 100 -145 305 -208
410 -46 75 -184 276 -199 290 -3 3 -26 30 -51 60 -174 215 -414 430 -650 585
-347 227 -781 399 -1135 450 -22 4 -47 8 -55 10 -8 2 -42 7 -75 11 -33 3 -69
9 -80 11 -22 6 -511 14 -517 8z m482 -811 c58 -8 128 -19 155 -25 28 -6 61
-13 75 -15 14 -3 57 -14 95 -25 492 -142 896 -428 1193 -846 169 -237 312
-575 357 -843 3 -19 8 -42 10 -50 2 -8 7 -44 11 -80 3 -36 8 -78 10 -95 5 -39
5 -332 0 -365 -2 -14 -4 -33 -5 -43 -1 -13 -59 22 -242 145 -132 90 -255 171
-272 182 -18 10 -34 21 -37 25 -3 3 -95 66 -205 140 -110 74 -288 193 -395
266 -107 72 -341 230 -520 350 -262 177 -508 342 -630 425 -8 5 -41 28 -73 50
-32 22 -62 40 -67 40 -4 0 -10 4 -12 8 -1 4 -86 63 -188 132 -179 119 -552
370 -558 376 -5 3 148 76 223 107 172 70 393 125 570 143 33 3 61 7 63 9 10 9
354 0 442 -11z m-2331 -1655 c20 -18 61 -55 91 -83 56 -51 187 -169 226 -203
22 -19 167 -149 214 -193 30 -27 161 -145 192 -171 10 -9 55 -50 101 -91 45
-41 102 -92 126 -114 25 -21 54 -48 66 -59 11 -11 54 -50 95 -86 41 -37 87
-77 101 -90 14 -13 43 -40 65 -59 167 -149 220 -197 234 -210 18 -17 174 -158
200 -180 19 -16 149 -134 265 -239 22 -20 80 -72 130 -116 49 -44 110 -98 135
-121 122 -110 333 -301 362 -326 17 -15 63 -56 199 -179 l29 -26 -83 -26
c-152 -48 -289 -79 -402 -93 -450 -52 -872 21 -1260 218 -270 138 -498 319
-693 553 -129 153 -246 345 -327 535 -36 84 -91 241 -99 283 -2 12 -11 50 -20
85 -9 34 -19 81 -22 105 -3 23 -7 48 -10 56 -25 75 -25 513 1 651 9 52 18 100
19 105 2 6 6 31 11 58 4 26 10 47 12 47 3 0 22 -14 42 -31z"/>
<path d="M2161 598 c-84 -23 -155 -94 -177 -176 -44 -170 66 -326 237 -335 40
-3 55 -8 70 -28 10 -13 19 -30 19 -36 0 -8 14 -13 33 -14 35 -1 121 -1 150 0
15 1 10 12 -26 59 -61 80 -61 79 -36 104 65 68 83 203 39 291 -28 55 -76 102
-129 125 -43 18 -133 23 -180 10z m134 -160 c50 -44 51 -151 1 -183 -76 -50
-166 3 -159 93 0 6 1 21 2 31 0 11 13 33 27 50 33 39 89 43 129 9z"/>
<path d="M2550 438 c0 -173 7 -215 43 -269 52 -79 193 -107 293 -58 53 25 100
85 110 137 6 29 9 263 5 335 -1 16 -10 18 -78 15 l-78 -3 -1 -150 c0 -82 -4
-160 -8 -172 -14 -44 -92 -47 -115 -4 -7 11 -11 84 -11 175 l0 156 -80 0 -80
0 0 -162z"/>
<path d="M3070 345 l0 -255 80 0 80 0 0 255 0 255 -80 0 -80 0 0 -255z"/>
<path d="M3304 536 l-1 -63 94 -1 c52 0 96 -2 98 -4 3 -3 -93 -133 -138 -188
-50 -61 -53 -68 -52 -126 l0 -59 190 -3 191 -2 -1 64 0 64 -97 -2 c-54 0 -98
3 -98 7 0 6 117 160 177 232 12 14 17 40 18 83 l1 62 -191 0 -191 0 0 -64z"/>
<path d="M3759 598 c-1 -4 -1 -100 0 -115 1 -8 27 -12 84 -11 112 0 124 -1
112 -10 -6 -4 -53 -62 -104 -129 -97 -127 -99 -132 -92 -230 1 -10 46 -13 191
-13 l191 0 -3 62 -3 63 -97 0 c-54 0 -98 2 -98 5 0 3 45 63 100 133 l100 128
0 59 0 60 -190 0 c-104 0 -190 -1 -191 -2z"/>
<path d="M4210 536 l0 -64 96 0 c52 0 97 -2 99 -4 3 -2 -3 -13 -13 -24 -10
-10 -31 -37 -47 -59 -17 -22 -32 -42 -35 -45 -3 -3 -17 -21 -30 -40 -13 -19
-27 -37 -30 -40 -26 -21 -40 -60 -40 -112 l0 -58 190 0 c145 0 190 3 191 13 1
6 1 35 1 62 l1 50 -97 1 c-53 1 -97 3 -99 6 -1 3 42 61 96 129 82 104 97 129
98 161 1 21 2 48 2 61 l1 22 -192 3 -192 2 0 -64z"/>
<path d="M4665 538 l1 -63 97 0 c53 0 97 -2 97 -5 0 -3 -23 -34 -50 -70 -65
-85 -59 -78 -104 -134 -36 -45 -40 -55 -42 -113 l-1 -63 191 2 191 3 0 60 0
60 -93 1 c-51 1 -95 4 -98 6 -3 3 39 63 94 132 l99 126 0 60 0 60 -192 0 -192
0 2 -62z"/>
<path d="M5532 345 l-1 -255 169 0 169 0 3 32 c2 18 1 48 -1 65 l-3 33 -62 -1
c-115 -2 -113 -3 -114 36 l-1 35 79 0 80 0 0 60 0 60 -80 0 -80 0 0 30 c0 33
-4 32 113 32 l67 0 1 39 c1 21 2 49 2 62 1 22 1 22 -170 25 l-171 2 0 -255z"/>
<path d="M5931 345 l0 -255 79 0 80 0 0 78 c0 43 3 81 6 85 3 3 25 -31 48 -76
l41 -82 88 -3 c48 -1 87 -1 87 2 0 2 -22 43 -50 91 -27 48 -50 90 -50 93 1 4
15 16 32 27 85 54 95 180 20 248 -40 36 -92 46 -239 47 l-141 0 -1 -255z m257
111 c13 -8 16 -35 6 -60 -4 -12 -20 -16 -55 -16 l-49 0 0 39 c0 22 5 42 13 44
16 7 71 2 85 -7z"/>
<path d="M5105 394 c-6 -7 -11 -36 -10 -65 l1 -54 167 -3 167 -2 0 65 0 65
-32 0 c-18 1 -89 2 -157 3 -82 1 -128 -2 -136 -9z"/>
</g>
</svg>
